<svg xmlns="http://www.w3.org/2000/svg" xmlns:xlink="http://www.w3.org/1999/xlink" viewBox="0 0 429.35 400"><defs><style>.cls-1,.cls-13,.cls-15,.cls-17,.cls-18,.cls-19,.cls-20,.cls-21,.cls-24,.cls-25,.cls-26,.cls-27{fill:#231f20;}.cls-1,.cls-105,.cls-14,.cls-15,.cls-17,.cls-18,.cls-19,.cls-20,.cls-21,.cls-24,.cls-25,.cls-26,.cls-27{stroke:#231f20;}.cls-1,.cls-10,.cls-101,.cls-105,.cls-112,.cls-116,.cls-121,.cls-132,.cls-14,.cls-142,.cls-15,.cls-17,.cls-18,.cls-19,.cls-20,.cls-24,.cls-25,.cls-26,.cls-27,.cls-56,.cls-65,.cls-72,.cls-74,.cls-85,.cls-86,.cls-93{stroke-miterlimit:10;}.cls-10,.cls-101,.cls-105,.cls-112,.cls-116,.cls-121,.cls-132,.cls-14,.cls-142,.cls-2,.cls-42,.cls-56,.cls-65,.cls-72,.cls-74,.cls-9,.cls-92,.cls-93{fill:none;}.cls-3{isolation:isolate;}.cls-125,.cls-126,.cls-20,.cls-24,.cls-27,.cls-33,.cls-4,.cls-5,.cls-56,.cls-58,.cls-6,.cls-7,.cls-78,.cls-84,.cls-93{fill-rule:evenodd;}.cls-4{fill:url(#linear-gradient);}.cls-5,.cls-53,.cls-8{opacity:0.5;}.cls-5{fill:url(#linear-gradient-2);}.cls-6,.cls-7{opacity:0.8;}.cls-6{fill:url(#linear-gradient-3);}.cls-7{fill:url(#linear-gradient-4);}.cls-9{stroke:#88898a;stroke-width:0.75px;}.cls-126,.cls-21,.cls-80,.cls-9,.cls-92{stroke-linecap:round;}.cls-126,.cls-21,.cls-42,.cls-80,.cls-9,.cls-92{stroke-linejoin:round;}.cls-10,.cls-101{stroke:#fff;}.cls-10,.cls-132,.cls-26,.cls-86{stroke-width:0.9px;}.cls-11{opacity:0.1;}.cls-104,.cls-12,.cls-124,.cls-28,.cls-29,.cls-30{mix-blend-mode:multiply;}.cls-15,.cls-65{stroke-width:0.86px;}.cls-16{clip-path:url(#clip-path);}.cls-17,.cls-20,.cls-70,.cls-76,.cls-78{opacity:0.9;}.cls-18,.cls-72{stroke-width:0.23px;}.cls-19,.cls-27,.cls-74,.cls-93{stroke-width:0.92px;}.cls-21,.cls-80,.cls-92{stroke-width:0.54px;}.cls-22{clip-path:url(#clip-path-2);}.cls-23{clip-path:url(#clip-path-3);}.cls-25,.cls-85{stroke-width:0.64px;}.cls-28{fill:url(#linear-gradient-5);}.cls-29{fill:url(#linear-gradient-6);}.cls-30{fill:url(#linear-gradient-7);}.cls-31{fill:#603728;}.cls-125,.cls-32,.cls-43{fill:#fff;}.cls-33,.cls-40{fill:#fec813;}.cls-34,.cls-44{opacity:0.7;}.cls-34{fill:url(#radial-gradient);}.cls-35{fill:#a6afb4;}.cls-36{fill:url(#linear-gradient-8);}.cls-37{fill:url(#linear-gradient-9);}.cls-38{fill:url(#linear-gradient-10);}.cls-39{fill:url(#linear-gradient-11);}.cls-41{fill:url(#linear-gradient-12);}.cls-42{stroke:#82919a;stroke-width:2.1px;}.cls-43,.cls-57{opacity:0.4;}.cls-44{fill:url(#radial-gradient-2);}.cls-45{fill:url(#linear-gradient-13);}.cls-46{fill:url(#linear-gradient-14);}.cls-47{fill:url(#linear-gradient-15);}.cls-48{fill:url(#linear-gradient-16);}.cls-49{fill:url(#linear-gradient-17);}.cls-50{fill:#c2c3c4;}.cls-51{fill:#1b2246;}.cls-52{clip-path:url(#clip-path-4);}.cls-53{fill:#27325b;}.cls-54{fill:#f9b17d;}.cls-55{fill:#93593d;}.cls-142,.cls-56{stroke:#603728;stroke-width:1.07px;}.cls-57{fill:url(#linear-gradient-18);}.cls-58{fill:#8e583d;}.cls-59{fill:#d0d2d3;}.cls-60{fill:#88898a;}.cls-61{fill:#af86e0;}.cls-62{fill:#ee7762;}.cls-126,.cls-63,.cls-80,.cls-85,.cls-86{fill:#eeb08a;}.cls-64{fill:url(#linear-gradient-19);}.cls-65{stroke:#58348c;}.cls-66{fill:url(#linear-gradient-20);}.cls-67{fill:#faba92;}.cls-68{clip-path:url(#clip-path-5);}.cls-69{fill:url(#linear-gradient-21);}.cls-70{fill:url(#linear-gradient-22);}.cls-71{fill:#4850d9;}.cls-72{stroke:#ab4841;}.cls-73{fill:url(#linear-gradient-23);}.cls-74{stroke:#3d48ad;}.cls-75{fill:url(#linear-gradient-24);}.cls-76{fill:url(#linear-gradient-25);}.cls-77{fill:#b06c10;}.cls-78{fill:url(#linear-gradient-26);}.cls-79{fill:#1a2146;}.cls-126,.cls-80{stroke:#d55e40;}.cls-81{clip-path:url(#clip-path-6);}.cls-82{fill:url(#linear-gradient-27);}.cls-83{clip-path:url(#clip-path-7);}.cls-84{fill:url(#linear-gradient-28);}.cls-85,.cls-86,.cls-92{stroke:#ba5427;}.cls-87{fill:#91293b;}.cls-88{fill:#ba5427;}.cls-89{fill:url(#radial-gradient-3);}.cls-90{fill:url(#radial-gradient-4);}.cls-91{fill:#d6a313;}.cls-93{stroke:#938a4a;}.cls-94{fill:url(#linear-gradient-29);}.cls-95{fill:#d55e40;}.cls-96{fill:#eb9f75;}.cls-97{fill:#d9936c;}.cls-98{fill:url(#linear-gradient-30);}.cls-99{fill:#153d6d;}.cls-100{clip-path:url(#clip-path-8);}.cls-101,.cls-116{stroke-width:0.84px;}.cls-102{fill:#4e273f;}.cls-103{fill:#a26f51;}.cls-104{fill:url(#linear-gradient-31);}.cls-105{stroke-width:0.63px;}.cls-106{fill:url(#linear-gradient-32);}.cls-107{fill:url(#linear-gradient-33);}.cls-108{clip-path:url(#clip-path-9);}.cls-109{fill:#9ea0a3;}.cls-110{fill:url(#linear-gradient-34);}.cls-111{fill:url(#radial-gradient-5);}.cls-112{stroke:#1a2146;stroke-width:0.45px;}.cls-113{fill:url(#linear-gradient-35);}.cls-114{fill:#2b78f4;}.cls-115{fill:url(#linear-gradient-36);}.cls-116{stroke:#19054a;}.cls-117{fill:url(#linear-gradient-37);}.cls-118{fill:#ae246c;}.cls-119{fill:#7fd4e3;}.cls-120{fill:#ab4841;}.cls-121{stroke:#410dbf;stroke-width:0.59px;}.cls-122{fill:url(#linear-gradient-38);}.cls-123{fill:url(#linear-gradient-39);}.cls-124{fill:url(#linear-gradient-40);}.cls-126{stroke-width:0.5px;}.cls-127{clip-path:url(#clip-path-10);}.cls-128{fill:url(#radial-gradient-6);}.cls-129{fill:url(#linear-gradient-41);}.cls-130{fill:url(#linear-gradient-42);}.cls-131{fill:#ad664d;}.cls-132{stroke:#ee7762;}.cls-133{fill:#808182;}.cls-134{fill:#98a5ac;}.cls-135{clip-path:url(#clip-path-11);}.cls-136{fill:url(#linear-gradient-43);}.cls-137{fill:#c8cfd3;}.cls-138{fill:url(#linear-gradient-44);}.cls-139{fill:url(#linear-gradient-45);}.cls-140{fill:url(#linear-gradient-46);}.cls-141{fill:url(#linear-gradient-47);}.cls-143{fill:#43c59e;}.cls-144{clip-path:url(#clip-path-12);}.cls-145{fill:url(#linear-gradient-48);}.cls-146{clip-path:url(#clip-path-13);}.cls-147{fill:url(#linear-gradient-49);}.cls-148{clip-path:url(#clip-path-14);}.cls-149{fill:url(#linear-gradient-50);}.cls-150{clip-path:url(#clip-path-15);}.cls-151{opacity:0.6;fill:url(#linear-gradient-51);}</style><linearGradient id="linear-gradient" y1="176.55" x2="419.52" y2="176.55" gradientUnits="userSpaceOnUse"><stop offset="0" stop-color="#fff8ed"/><stop offset="1" stop-color="#ffe2c5"/></linearGradient><linearGradient id="linear-gradient-2" x1="28.72" y1="187.27" x2="157.02" y2="187.27" gradientUnits="userSpaceOnUse"><stop offset="0.01" stop-color="#ef9e11" stop-opacity="0.05"/><stop offset="1" stop-color="#ba5320" stop-opacity="0.15"/></linearGradient><linearGradient id="linear-gradient-3" x1="131.11" y1="154.14" x2="210.06" y2="154.14" xlink:href="#linear-gradient-2"/><linearGradient id="linear-gradient-4" x1="198.86" y1="93.35" x2="396.73" y2="93.35" xlink:href="#linear-gradient-2"/><clipPath id="clip-path"><path class="cls-1" d="M293.62,201.74l.11-.87s-8.45,7.29-16.76,13.75c-2.93,2.28-7.77,4.45-9.37,5.53-9,6-10.43,8.83-15.25,10.44,0,0-4.85,1.38-6.15,1.89a6.08,6.08,0,0,0-2.54,2.21c-.91,1-1.57.81-2.37,1s-.42,1.14.93,1.14a3.22,3.22,0,0,0,2.48-.77l1.1,2.12a3.89,3.89,0,0,1-.42.32l-.06-.08-.1.18c-1.17.69-2.78.8-3.6-.34,0,0-.21-.77-.58-.69s-.37.39-.12,1.2a2.82,2.82,0,0,0,1.25,1.49,2.53,2.53,0,0,1-.75-.42s-.53-.42-.76-.24-.22.52.32,1.13a3,3,0,0,0,2.66.93l.09,0a2,2,0,0,1-1.14.2s-.76-.16-.89.08,0,.58.82.84a3.74,3.74,0,0,0,2.93-.5,5.21,5.21,0,0,0,1-.92l.1.14a2.69,2.69,0,0,1-1.64,1.54c-1.16.42-1.18.51-1.18.71s1,.29,2.28-.22a8.16,8.16,0,0,0,4.18-4c.26-.49.49-1,.71-1.49.33-.74,1-2.29,1-2.29l3.89-1.25c.84-.42,7.8-2.72,15.14-5.85,4.2-1.79,29-13.62,29-13.62Z"/></clipPath><clipPath id="clip-path-2"><circle class="cls-1" cx="244.57" cy="237.99" r="3"/></clipPath><clipPath id="clip-path-3"><path class="cls-1" d="M336.13,222.86a4.17,4.17,0,0,1-4.51-1.86c-1.38-1.93-1.69-1.15-1.72.17a1.85,1.85,0,0,1-1.75-1.38,2.64,2.64,0,0,1-1.21-3.59,2.35,2.35,0,0,1-.1-3,1.85,1.85,0,0,1,1.19-2.46c2.19-1,6.19,1.77,9.14,5.2,4.21,4.88,13.82,8.34,13.82,8.34a8.09,8.09,0,0,1,6.2,6.52c.87,5.49.6,11.2-2.39,10.93a13.46,13.46,0,0,1-6.69-3.26C343,233.69,337.63,225.38,336.13,222.86Z"/></clipPath><linearGradient id="linear-gradient-5" x1="367.67" y1="370.69" x2="322.4" y2="349.69" gradientUnits="userSpaceOnUse"><stop offset="0" stop-color="#fff" stop-opacity="0.1"/><stop offset="0.35" stop-color="#999fbb" stop-opacity="0.2"/><stop offset="0.99" stop-color="#38447a" stop-opacity="0.3"/></linearGradient><linearGradient id="linear-gradient-6" x1="193.78" y1="455.07" x2="111.76" y2="401.22" gradientTransform="translate(212.02 -36.63) rotate(-3.28)" xlink:href="#linear-gradient-5"/><linearGradient id="linear-gradient-7" x1="105.87" y1="363.66" x2="105.87" y2="351.86" xlink:href="#linear-gradient-5"/><radialGradient id="radial-gradient" cx="306.91" cy="128.02" r="69.87" gradientUnits="userSpaceOnUse"><stop offset="0.01" stop-color="#fff"/><stop offset="0.81" stop-color="#fff" stop-opacity="0"/></radialGradient><linearGradient id="linear-gradient-8" x1="303.03" y1="109.84" x2="305.61" y2="109.84" gradientUnits="userSpaceOnUse"><stop offset="0.02" stop-color="#8c959b"/><stop offset="0.82" stop-color="#808f98"/></linearGradient><linearGradient id="linear-gradient-9" x1="299.44" y1="115.83" x2="309.44" y2="115.83" xlink:href="#linear-gradient-8"/><linearGradient id="linear-gradient-10" x1="297.41" y1="130.4" x2="311.76" y2="130.4" xlink:href="#linear-gradient-8"/><linearGradient id="linear-gradient-11" x1="298.19" y1="139.5" x2="310.98" y2="139.5" xlink:href="#linear-gradient-8"/><linearGradient id="linear-gradient-12" x1="295.02" y1="121.37" x2="313.8" y2="121.37" xlink:href="#linear-gradient-8"/><radialGradient id="radial-gradient-2" cx="116.87" cy="127.76" r="69.87" xlink:href="#radial-gradient"/><linearGradient id="linear-gradient-13" x1="112.86" y1="109.33" x2="115.45" y2="109.33" xlink:href="#linear-gradient-8"/><linearGradient id="linear-gradient-14" x1="109.28" y1="115.32" x2="119.27" y2="115.32" xlink:href="#linear-gradient-8"/><linearGradient id="linear-gradient-15" x1="107.25" y1="129.89" x2="121.6" y2="129.89" xlink:href="#linear-gradient-8"/><linearGradient id="linear-gradient-16" x1="108.03" y1="138.99" x2="120.82" y2="138.99" xlink:href="#linear-gradient-8"/><linearGradient id="linear-gradient-17" x1="104.85" y1="120.86" x2="123.64" y2="120.86" xlink:href="#linear-gradient-8"/><clipPath id="clip-path-4"><rect class="cls-2" x="155.97" y="120.41" width="106.59" height="219.97"/></clipPath><linearGradient id="linear-gradient-18" x1="250.87" y1="108.11" x2="205.96" y2="363.86" xlink:href="#radial-gradient"/><linearGradient id="linear-gradient-19" x1="274.52" y1="288.82" x2="341.97" y2="317.65" gradientUnits="userSpaceOnUse"><stop offset="0.01" stop-color="#38447a" stop-opacity="0"/><stop offset="0.12" stop-color="#353e6b" stop-opacity="0.16"/><stop offset="0.65" stop-color="#282734" stop-opacity="0.78"/><stop offset="1" stop-color="#231f20"/></linearGradient><linearGradient id="linear-gradient-20" x1="276.62" y1="288.84" x2="358.36" y2="292.61" xlink:href="#linear-gradient-19"/><clipPath id="clip-path-5"><path class="cls-2" d="M286.7,198.21l.11-.87s-8.45,7.29-16.76,13.75c-2.93,2.28-7.77,4.45-9.37,5.53-9,6-10.43,8.83-15.25,10.44,0,0-4.85,1.38-6.15,1.89a6.08,6.08,0,0,0-2.54,2.21c-.91,1-1.57.81-2.37,1s-.42,1.14.93,1.14a3.22,3.22,0,0,0,2.48-.77l1.1,2.12a3.89,3.89,0,0,1-.42.32l-.06-.08-.1.18c-1.17.69-2.78.8-3.6-.34,0,0-.21-.77-.58-.69s-.37.39-.12,1.2a2.82,2.82,0,0,0,1.25,1.49,2.53,2.53,0,0,1-.75-.42s-.53-.42-.76-.24-.22.52.32,1.13a3,3,0,0,0,2.66.93l.09,0a2,2,0,0,1-1.14.2s-.76-.16-.89.08,0,.58.82.84a3.74,3.74,0,0,0,2.93-.5,5.21,5.21,0,0,0,1-.92l.1.14a2.69,2.69,0,0,1-1.64,1.54c-1.16.42-1.18.51-1.18.71s1,.29,2.28-.22a8.16,8.16,0,0,0,4.18-4c.26-.49.49-1,.71-1.49.33-.74,1-2.29,1-2.29l3.89-1.25c.84-.42,7.8-2.72,15.14-5.85,4.2-1.79,29-13.62,29-13.62Z"/></clipPath><linearGradient id="linear-gradient-21" x1="245.09" y1="225.25" x2="232.54" y2="241.47" gradientUnits="userSpaceOnUse"><stop offset="0.22" stop-color="#d9936c" stop-opacity="0"/><stop offset="0.99" stop-color="#a6515a"/></linearGradient><linearGradient id="linear-gradient-22" x1="260.36" y1="213.87" x2="293.58" y2="213.87" xlink:href="#linear-gradient-21"/><linearGradient id="linear-gradient-23" x1="349.51" y1="212.59" x2="309.53" y2="221.43" gradientUnits="userSpaceOnUse"><stop offset="0.22" stop-color="#3d48ad" stop-opacity="0"/><stop offset="0.48" stop-color="#3d48ad" stop-opacity="0.52"/><stop offset="0.67" stop-color="#3d48ad" stop-opacity="0.87"/><stop offset="0.77" stop-color="#3d48ad"/></linearGradient><linearGradient id="linear-gradient-24" x1="324.17" y1="205.14" x2="307.92" y2="178.86" xlink:href="#linear-gradient-23"/><linearGradient id="linear-gradient-25" x1="316.2" y1="201.14" x2="304.65" y2="175.64" xlink:href="#linear-gradient-21"/><linearGradient id="linear-gradient-26" x1="344.9" y1="205.43" x2="333.26" y2="221.06" xlink:href="#linear-gradient-21"/><clipPath id="clip-path-6"><circle class="cls-2" cx="237.65" cy="234.46" r="3"/></clipPath><linearGradient id="linear-gradient-27" x1="234.56" y1="234.44" x2="242.13" y2="234.44" gradientUnits="userSpaceOnUse"><stop offset="0.01" stop-color="#88898a"/><stop offset="0.8" stop-color="#c2c3c4"/></linearGradient><clipPath id="clip-path-7"><path class="cls-2" d="M329.2,219.33a4.17,4.17,0,0,1-4.51-1.86c-1.38-1.93-1.69-1.15-1.72.17a1.85,1.85,0,0,1-1.75-1.38,2.64,2.64,0,0,1-1.21-3.59,2.35,2.35,0,0,1-.1-3,1.85,1.85,0,0,1,1.19-2.46c2.19-1,6.19,1.77,9.14,5.2,4.21,4.88,13.82,8.34,13.82,8.34a8.09,8.09,0,0,1,6.2,6.52c.87,5.49.6,11.2-2.39,10.93a13.46,13.46,0,0,1-6.69-3.26C336.11,230.16,330.7,221.85,329.2,219.33Z"/></clipPath><linearGradient id="linear-gradient-28" x1="342.84" y1="224.34" x2="334.68" y2="237.17" xlink:href="#linear-gradient-21"/><radialGradient id="radial-gradient-3" cx="1258.96" cy="-785.47" r="6.22" gradientTransform="matrix(0.86, -0.42, 0.4, 0.91, -470.82, 1413.05)" gradientUnits="userSpaceOnUse"><stop offset="0" stop-color="#ec9981"/><stop offset="0.78" stop-color="#ec9981" stop-opacity="0"/></radialGradient><radialGradient id="radial-gradient-4" cx="1268.1" cy="-783.08" r="6.22" gradientTransform="matrix(0.86, -0.42, 0.4, 0.91, -470.9, 1412.7)" xlink:href="#radial-gradient-3"/><linearGradient id="linear-gradient-29" x1="288.31" y1="151.58" x2="284.82" y2="149.69" gradientTransform="translate(-9.82 114.48) rotate(-17.3)" xlink:href="#linear-gradient-21"/><linearGradient id="linear-gradient-30" x1="368.18" y1="162.64" x2="371.9" y2="162.9" gradientUnits="userSpaceOnUse"><stop offset="0.07" stop-color="#d9936c" stop-opacity="0"/><stop offset="0.99" stop-color="#a6515a"/></linearGradient><clipPath id="clip-path-8"><path class="cls-2" d="M370.37,364.39s2.95,8.83-1.53,10.26c-5.51,1.76-18.55-3-20.94-5-.85-1.4-.25-6.21,7.64-4.65,2.82.55,5.62-.24,6.52-2.75S370.37,364.39,370.37,364.39Z"/></clipPath><linearGradient id="linear-gradient-31" x1="395.68" y1="271.4" x2="371.2" y2="318.14" xlink:href="#linear-gradient-19"/><linearGradient id="linear-gradient-32" x1="360.93" y1="178.26" x2="369.06" y2="184.03" gradientUnits="userSpaceOnUse"><stop offset="0.22" stop-color="#d9936c" stop-opacity="0"/><stop offset="0.87" stop-color="#ad5b5d" stop-opacity="0.88"/><stop offset="0.99" stop-color="#a6515a"/></linearGradient><linearGradient id="linear-gradient-33" x1="386.76" y1="168.47" x2="371.04" y2="163.27" xlink:href="#linear-gradient-21"/><clipPath id="clip-path-9"><path class="cls-2" d="M393.44,354.77s5,4,3.22,8.46c-2.44,6.28-5.73,14.67-7.61,16.74s-9.26,2.22-11.39.63c-2.31-1.72-2.43-4.24-1.41-5.58.32-.42,1.34-1.79,4.57-1,0,0,.78-9.58,1-11.19S387.7,351,393.44,354.77Z"/></clipPath><linearGradient id="linear-gradient-34" x1="121.79" y1="637.33" x2="110.48" y2="635.78" gradientTransform="matrix(0.98, 0.18, -0.18, 0.98, 399.59, -500.3)" xlink:href="#linear-gradient-21"/><radialGradient id="radial-gradient-5" cx="1357.45" cy="-767.83" r="6.99" gradientTransform="matrix(0.86, -0.42, 0.4, 0.91, -471.89, 1409.47)" xlink:href="#radial-gradient-3"/><linearGradient id="linear-gradient-35" x1="363.2" y1="189.11" x2="366.17" y2="192.5" xlink:href="#linear-gradient-32"/><linearGradient id="linear-gradient-36" x1="394.19" y1="221.07" x2="389.27" y2="179.16" gradientUnits="userSpaceOnUse"><stop offset="0.01" stop-color="#2b78f4" stop-opacity="0"/><stop offset="0.1" stop-color="#2671e4" stop-opacity="0.13"/><stop offset="0.38" stop-color="#185fb5" stop-opacity="0.5"/><stop offset="0.64" stop-color="#0e5193" stop-opacity="0.78"/><stop offset="0.85" stop-color="#08497e" stop-opacity="0.94"/><stop offset="1" stop-color="#064677"/></linearGradient><linearGradient id="linear-gradient-37" x1="390.14" y1="175.23" x2="378.4" y2="171.8" xlink:href="#linear-gradient-21"/><linearGradient id="linear-gradient-38" x1="395.49" y1="183.09" x2="387.69" y2="166.18" gradientUnits="userSpaceOnUse"><stop offset="0.21" stop-color="#7fd4e3" stop-opacity="0"/><stop offset="0.23" stop-color="#7dd3e2" stop-opacity="0.02"/><stop offset="0.49" stop-color="#51b8ca" stop-opacity="0.54"/><stop offset="0.67" stop-color="#36a8bb" stop-opacity="0.87"/><stop offset="0.76" stop-color="#2ba1b5"/></linearGradient><linearGradient id="linear-gradient-39" x1="370.6" y1="290.59" x2="361.53" y2="203.82" xlink:href="#linear-gradient-36"/><linearGradient id="linear-gradient-40" x1="365.94" y1="367.47" x2="370.88" y2="345.26" xlink:href="#linear-gradient-19"/><clipPath id="clip-path-10"><path class="cls-2" d="M388.28,153.93c-2.08-.21-4.06-1.45-5.43-4.88-.41-1-1.07-2.1-1.55-3.12l2.76-.68,3.64,4.8Z"/></clipPath><radialGradient id="radial-gradient-6" cx="1698.17" cy="-1137.25" r="8.27" gradientTransform="matrix(0.72, -0.42, 0.33, 0.91, -467.95, 1892.73)" xlink:href="#radial-gradient-3"/><linearGradient id="linear-gradient-41" x1="383.69" y1="151.91" x2="386.17" y2="147.18" xlink:href="#linear-gradient-21"/><linearGradient id="linear-gradient-42" x1="384.36" y1="189.36" x2="381.46" y2="175.68" gradientUnits="userSpaceOnUse"><stop offset="0.01" stop-color="#ae236c" stop-opacity="0"/><stop offset="0.04" stop-color="#ab226b" stop-opacity="0.05"/><stop offset="0.35" stop-color="#901c5f" stop-opacity="0.46"/><stop offset="0.62" stop-color="#7d1757" stop-opacity="0.75"/><stop offset="0.84" stop-color="#711452" stop-opacity="0.94"/><stop offset="1" stop-color="#6d1350"/></linearGradient><clipPath id="clip-path-11"><polygon class="cls-2" points="212.07 163.76 189.93 163.3 189.93 156.85 212.07 157.98 212.07 163.76"/></clipPath><linearGradient id="linear-gradient-43" x1="203.63" y1="160.76" x2="188.83" y2="158.19" gradientUnits="userSpaceOnUse"><stop offset="0" stop-color="#fff" stop-opacity="0.5"/><stop offset="0.98" stop-color="#fff" stop-opacity="0"/></linearGradient><linearGradient id="linear-gradient-44" x1="-1488.97" y1="98.79" x2="-1495.07" y2="233.13" gradientTransform="matrix(-1, 0, 0, 1, -1225.96, 0)" xlink:href="#radial-gradient"/><linearGradient id="linear-gradient-45" x1="660.47" y1="98.78" x2="654.36" y2="233.12" gradientTransform="translate(-505.2)" xlink:href="#radial-gradient"/><linearGradient id="linear-gradient-46" x1="225.08" y1="217.56" x2="218.53" y2="230.13" xlink:href="#radial-gradient"/><linearGradient id="linear-gradient-47" x1="221.26" y1="244.18" x2="210.89" y2="264.07" xlink:href="#radial-gradient"/><clipPath id="clip-path-12"><path class="cls-2" d="M134.26,242.63S115.81,255.12,116,284s0,53.81,0,53.81h3.27s-2.5-30-1.54-36.9,3.32-6.79,7.4-9.23-.67-7.3,2-10.38,4.23-1.35,2.88-9,5.7-7.3,6-13.84S133.3,249.55,134.26,242.63Z"/></clipPath><linearGradient id="linear-gradient-48" x1="5472.1" y1="264.12" x2="5455.96" y2="270.47" gradientTransform="matrix(-1, 0, 0, 1, 5583.83, 0)" gradientUnits="userSpaceOnUse"><stop offset="0.32" stop-color="#43c59e" stop-opacity="0"/><stop offset="0.4" stop-color="#42bd98" stop-opacity="0.19"/><stop offset="0.53" stop-color="#41b190" stop-opacity="0.48"/><stop offset="0.67" stop-color="#3fa889" stop-opacity="0.7"/><stop offset="0.79" stop-color="#3fa184" stop-opacity="0.87"/><stop offset="0.9" stop-color="#3e9d81" stop-opacity="0.97"/><stop offset="0.99" stop-color="#3e9c80"/></linearGradient><clipPath id="clip-path-13"><path class="cls-2" d="M84.8,254.26s-.42,14.2,6.08,19.18,3.59,7.16,3.71,10.06a10.35,10.35,0,0,0,4.73,8.11c2.91,1.74-1.32,6.87,7.7,13.36s6.08,25.15,5.2,33.71l1.84.19s1.92-23.8-1.44-38.28c-3.43-14.78-7.49-25.5-17.1-34.32S84.8,254.26,84.8,254.26Z"/></clipPath><linearGradient id="linear-gradient-49" x1="109.64" y1="276.6" x2="97.82" y2="283.67" gradientTransform="matrix(1, 0, 0, 1, 0, 0)" xlink:href="#linear-gradient-48"/><clipPath id="clip-path-14"><path class="cls-2" d="M153.69,280.67a10.49,10.49,0,0,0-3.68,5.42c-1,3.42-2.32,6.29-4.6,7.26-6.4,2.72-2.08,6.65-6.93,10-2.61,1.81-4.27,3.23-5,6.23-.92,3.82-1.8,5-5,6.77-.62.34-4.61-.66-6.56,3.21-2.66,5.29-3.36,16-3.33,17.58h-1.46a71.42,71.42,0,0,1,5.19-25.43C128.38,297.52,140.61,283.38,153.69,280.67Z"/></clipPath><linearGradient id="linear-gradient-50" x1="140.06" y1="303.2" x2="134.18" y2="297.84" gradientTransform="matrix(1, 0, 0, 1, 0, 0)" xlink:href="#linear-gradient-48"/><clipPath id="clip-path-15"><path class="cls-2" d="M124.09,353.87H113.82a8.36,8.36,0,0,1-8.19-6.7l-4.12-20.34a3.88,3.88,0,0,1,3.81-4.65h27.62a3.6,3.6,0,0,1,3.53,4.32l-4.19,20.67A8.36,8.36,0,0,1,124.09,353.87Z"/></clipPath><linearGradient id="linear-gradient-51" x1="108.52" y1="323.53" x2="139.24" y2="355.42" gradientUnits="userSpaceOnUse"><stop offset="0.04" stop-color="#2fb5be" stop-opacity="0"/><stop offset="0.07" stop-color="#58348c" stop-opacity="0.11"/><stop offset="0.25" stop-color="#744ea7" stop-opacity="0.41"/><stop offset="0.41" stop-color="#8862bb" stop-opacity="0.63"/><stop offset="0.49" stop-color="#9069c3" stop-opacity="0.72"/><stop offset="0.63" stop-color="#9d75cf" stop-opacity="0.84"/><stop offset="0.77" stop-color="#a77ed8" stop-opacity="0.93"/><stop offset="0.9" stop-color="#ad84de" stop-opacity="0.98"/><stop offset="0.99" stop-color="#af86e0"/></linearGradient></defs><title>hl_illustration</title><g class="cls-3"><g id="Layer_2" data-name="Layer 2"><g id="Layer_1-2" data-name="Layer 1"><path class="cls-4" d="M123.81,286.94c19.51,1,40.83.76,59.37,7.8,39.34,14.94,66.63,48,109.27,56.3,23.87,4.62,48.43.91,69.5-11.59,41.72-24.74,65.89-85.88,54.92-132.79-6.69-28.63-33.62-48.51-47.23-74.58-18.54-35.5-20.43-81.21-49.84-108.39C293.35-.76,250.47-8.26,220.17,11.24c-24.75,15.92-41.68,41.59-67.67,55.94C131.44,78.81,105.78,77.35,82.69,81.4,60.5,85.29,40.2,93.28,25.14,110.71a99.31,99.31,0,0,0-18,31.37c-10.22,28.8-9.92,61.86,3.59,89.51a86.63,86.63,0,0,0,20.37,26.56c8.82,7.5,20.36,14.73,31.3,18.67,18,6.48,37.24,8.76,56.34,9.86Z"/><path class="cls-5" d="M65.23,85.84c-13.7,4.29-26.19,11-36.52,21.58,4.73,56.86,27.14,118.64,18.47,161.74a92.54,92.54,0,0,0,15.6,7.5c18,6.47,37.18,8.75,56.25,9.84l5,.27c10.7.53,21.93.71,33,1.92-4.79-29.62-16.11-64.23-41.17-95.59C87.27,157.34,70.45,120.78,65.23,85.84Z"/><path class="cls-6" d="M207.5,245.33c14.82-43.55-39.33-70-48.36-152A121.66,121.66,0,0,1,159.6,63c-2.23,1.53-4.53,3-6.94,4.31a78.78,78.78,0,0,1-21,7.65c-2.55,28.71,3.52,59.36,19,92,26.08,55.1,17.45,78,17.45,78Z"/><path class="cls-7" d="M396.73,169.65c-9.6-12.38-20.36-24.32-27.48-37.95-18.5-35.44-20.39-81.07-49.76-108.2C293.09-.91,250.28-8.39,220,11.07a172.74,172.74,0,0,0-17.81,13.19,132.75,132.75,0,0,0,194.5,145.39Z"/><g class="cls-8"><line class="cls-9" x1="29.86" y1="188.37" x2="84.95" y2="188.37"/><line class="cls-9" x1="29.86" y1="200.55" x2="98.86" y2="200.55"/><line class="cls-9" x1="49.87" y1="188.08" x2="49.87" y2="176.19"/><line class="cls-9" x1="71.32" y1="112.7" x2="71.32" y2="100.81"/><line class="cls-9" x1="49" y1="125.46" x2="49" y2="113.57"/><line class="cls-9" x1="49.58" y1="99.94" x2="49.58" y2="93.01"/><line class="cls-9" x1="50.16" y1="213.3" x2="50.16" y2="201.42"/><line class="cls-9" x1="83.21" y1="212.72" x2="83.21" y2="200.83"/><line class="cls-9" x1="68.71" y1="188.37" x2="68.71" y2="200.26"/><line class="cls-9" x1="282.23" y1="249.69" x2="322.82" y2="249.69"/><line class="cls-9" x1="282.23" y1="261.86" x2="336.74" y2="261.86"/><line class="cls-9" x1="287.74" y1="249.4" x2="287.74" y2="237.51"/><line class="cls-9" x1="288.03" y1="274.62" x2="288.03" y2="262.73"/><line class="cls-9" x1="321.08" y1="274.04" x2="321.08" y2="262.15"/><line class="cls-9" x1="306.59" y1="249.69" x2="306.59" y2="261.57"/><line class="cls-9" x1="269.48" y1="56.6" x2="324.56" y2="56.6"/><line class="cls-9" x1="269.48" y1="68.78" x2="338.48" y2="68.78"/><line class="cls-9" x1="29.01" y1="112.7" x2="88.43" y2="112.7"/><line class="cls-9" x1="37.98" y1="100.09" x2="114.08" y2="100.09"/><line class="cls-9" x1="289.48" y1="56.31" x2="289.48" y2="44.42"/><line class="cls-9" x1="289.77" y1="81.53" x2="289.77" y2="69.65"/><line class="cls-9" x1="322.82" y1="80.96" x2="322.82" y2="69.07"/><line class="cls-9" x1="308.33" y1="56.6" x2="308.33" y2="68.49"/></g><path class="cls-10" d="M132.4,274.69s3.41-5.75,8.28-7.54"/><g class="cls-11"><path class="cls-1" d="M332.11,351.15l.87-.37c-.31-9.2-1.44-43.09-1.44-47.11,0-4.65.18-21.82,1.43-30.58s5.54-13.77,8.23-25.75-15.56-10.91-16.1-10.91-12.16,3.67-12.16,3.67a117.22,117.22,0,0,0-2.86,24.41,122.24,122.24,0,0,0,5,38.45c2.91,10.1,10.92,39.16,13.17,47.36A6.94,6.94,0,0,1,332.11,351.15Z"/><g class="cls-12"><path class="cls-13" d="M330.13,350.44a5.54,5.54,0,0,1,2,.71c.87-.36,1.74-.73,2.61-1.11l-9.14-78.41s-1.85,12.8-.84,33.52C325.56,322.09,328.93,343.27,330.13,350.44Z"/><path class="cls-14" d="M330.13,350.44a5.54,5.54,0,0,1,2,.71c.87-.36,1.74-.73,2.61-1.11l-9.14-78.41s-1.85,12.8-.84,33.52C325.56,322.09,328.93,343.27,330.13,350.44Z"/></g><path class="cls-1" d="M344.86,235.54l-16-2.15s-2.15,26.29-2.32,37.2a240.71,240.71,0,0,0,2.15,34.34c1.2,8.68,3.27,37,3.91,46,2.61-1.09,5.17-2.26,7.71-3.51C341,343,342,337,343.16,331.63a59.66,59.66,0,0,0,.48-24.2c-1.19-6.91,6.92-30.52,9.06-40.3S351.45,244.84,344.86,235.54Z"/><path class="cls-15" d="M328.68,304.92c1.2,8.68,3.27,37,3.91,46h0l-6.24-89.22s-.6,9.74-.33,17S327.25,294.55,328.68,304.92Z"/><path class="cls-1" d="M301.48,176.17a10.29,10.29,0,0,0,.76-5.34c-.27-3.44,1.09-4.69,4-5.73s8.29-2.89,6.38-5.94-10.2-.87-12.71,4.63-.76,8.13-2.78,11.12-6.71,9.65-5.52,15.91c1.4,7.34,5.22,8.53,5.43,12.85.29,6-2.72,9.06-1.7,15.63,1.67,10.71,17.3,12.05,21.38,2.93,2.13-4.75,4.24-19.45,4-20.21s-16.58-23.12-16.58-23.12Z"/><g class="cls-12"><path class="cls-13" d="M353.34,261.11c0-.24,0-.48,0-.72s0-.25,0-.37,0-.42,0-.64,0-.25,0-.37,0-.43,0-.64,0-.24,0-.35,0-.44-.06-.66,0-.2,0-.29-.05-.49-.08-.73c0-.09,0-.17,0-.26,0-.26-.07-.51-.11-.77l0-.25c0-.26-.08-.52-.13-.78l-.06-.29c0-.25-.09-.5-.14-.75l-.07-.33c-.05-.24-.1-.47-.15-.71l-.09-.38-.16-.66-.11-.42-.16-.61-.13-.43c-.06-.2-.11-.4-.18-.61l-.13-.41-.2-.61-.16-.46-.19-.56-.18-.49-.19-.52-.21-.52L350,245l-.25-.59-.17-.41-.27-.6-.18-.4-.28-.59-.18-.39-.31-.62-.18-.35-.33-.63-.17-.33-.38-.67-.15-.27-.37-.63-.18-.3-.4-.64-.17-.27-.42-.65-.17-.25-.45-.65-.15-.22c-2.59,3.89-7.39,7.94-16.63,9.28,0,0,5.08,25.3,10.69,28.52,3.59,2.06,1.48,28.65,1.63,39.14s-1.89,26.85-3.63,36.54q1.69-.78,3.36-1.6C341,343,342,337,343.16,331.63a59.66,59.66,0,0,0,.48-24.2c-1-5.8,4.55-23.36,7.63-34.64l.2-.72,0-.16.25-1,.14-.54L352,270l.17-.68.06-.24.21-.88,0-.21.2-.85q.2-.92.34-1.86c0-.08,0-.16,0-.24,0-.24.06-.47.09-.71,0-.08,0-.15,0-.23,0-.24,0-.49.07-.74,0,0,0-.1,0-.15,0-.28,0-.55.05-.83,0-.06,0-.11,0-.17,0-.27,0-.54,0-.82C353.34,261.29,353.34,261.2,353.34,261.11Z"/><path class="cls-14" d="M353.34,261.11c0-.24,0-.48,0-.72s0-.25,0-.37,0-.42,0-.64,0-.25,0-.37,0-.43,0-.64,0-.24,0-.35,0-.44-.06-.66,0-.2,0-.29-.05-.49-.08-.73c0-.09,0-.17,0-.26,0-.26-.07-.51-.11-.77l0-.25c0-.26-.08-.52-.13-.78l-.06-.29c0-.25-.09-.5-.14-.75l-.07-.33c-.05-.24-.1-.47-.15-.71l-.09-.38-.16-.66-.11-.42-.16-.61-.13-.43c-.06-.2-.11-.4-.18-.61l-.13-.41-.2-.61-.16-.46-.19-.56-.18-.49-.19-.52-.21-.52L350,245l-.25-.59-.17-.41-.27-.6-.18-.4-.28-.59-.18-.39-.31-.62-.18-.35-.33-.63-.17-.33-.38-.67-.15-.27-.37-.63-.18-.3-.4-.64-.17-.27-.42-.65-.17-.25-.45-.65-.15-.22c-2.59,3.89-7.39,7.94-16.63,9.28,0,0,5.08,25.3,10.69,28.52,3.59,2.06,1.48,28.65,1.63,39.14s-1.89,26.85-3.63,36.54q1.69-.78,3.36-1.6C341,343,342,337,343.16,331.63a59.66,59.66,0,0,0,.48-24.2c-1-5.8,4.55-23.36,7.63-34.64l.2-.72,0-.16.25-1,.14-.54L352,270l.17-.68.06-.24.21-.88,0-.21.2-.85q.2-.92.34-1.86c0-.08,0-.16,0-.24,0-.24.06-.47.09-.71,0-.08,0-.15,0-.23,0-.24,0-.49.07-.74,0,0,0-.1,0-.15,0-.28,0-.55.05-.83,0-.06,0-.11,0-.17,0-.27,0-.54,0-.82C353.34,261.29,353.34,261.2,353.34,261.11Z"/></g><path class="cls-1" d="M293.62,201.74l.11-.87s-8.45,7.29-16.76,13.75c-2.93,2.28-7.77,4.45-9.37,5.53-5.69,3.82-11.81,8.13-16.18,10.48a22.17,22.17,0,0,1-5.22,1.85,6.08,6.08,0,0,0-2.54,2.21c-.91,1-1.57.81-2.37,1s-.42,1.14.93,1.14a3.22,3.22,0,0,0,2.48-.77l1.1,2.12a3.89,3.89,0,0,1-.42.32l-.06-.08-.1.18c-1.17.69-2.78.8-3.6-.34,0,0-.21-.77-.58-.69s-.37.39-.12,1.2a2.82,2.82,0,0,0,1.25,1.49,2.53,2.53,0,0,1-.75-.42s-.53-.42-.76-.24-.22.52.32,1.13a3,3,0,0,0,2.66.93l.09,0a2,2,0,0,1-1.14.2s-.76-.16-.89.08,0,.58.82.84a3.74,3.74,0,0,0,2.93-.5,5.21,5.21,0,0,0,1-.92l.1.14a3.45,3.45,0,0,1-1.64,1.54c-1.12.53-1.18.51-1.18.71s1,.29,2.28-.22a8.16,8.16,0,0,0,4.18-4c.26-.49.49-1,.71-1.49.33-.74,1-2.29,1-2.29l3.89-1.25c.84-.42,7.8-2.72,15.14-5.85,4.2-1.79,29-13.62,29-13.62Z"/><path class="cls-13" d="M293.62,201.74l.11-.87s-8.45,7.29-16.76,13.75c-2.93,2.28-7.77,4.45-9.37,5.53-9,6-10.43,8.83-15.25,10.44,0,0-4.85,1.38-6.15,1.89a6.08,6.08,0,0,0-2.54,2.21c-.91,1-1.57.81-2.37,1s-.42,1.14.93,1.14a3.22,3.22,0,0,0,2.48-.77l1.1,2.12a3.89,3.89,0,0,1-.42.32l-.06-.08-.1.18c-1.17.69-2.78.8-3.6-.34,0,0-.21-.77-.58-.69s-.37.39-.12,1.2a2.82,2.82,0,0,0,1.25,1.49,2.53,2.53,0,0,1-.75-.42s-.53-.42-.76-.24-.22.52.32,1.13a3,3,0,0,0,2.66.93l.09,0a2,2,0,0,1-1.14.2s-.76-.16-.89.08,0,.58.82.84a3.74,3.74,0,0,0,2.93-.5,5.21,5.21,0,0,0,1-.92l.1.14a2.69,2.69,0,0,1-1.64,1.54c-1.16.42-1.18.51-1.18.71s1,.29,2.28-.22a8.16,8.16,0,0,0,4.18-4c.26-.49.49-1,.71-1.49.33-.74,1-2.29,1-2.29l3.89-1.25c.84-.42,7.8-2.72,15.14-5.85,4.2-1.79,29-13.62,29-13.62Z"/><g class="cls-16"><path class="cls-1" d="M248.4,234.76c1.15-.61,1.54,1.13,1.52,2.12a6.56,6.56,0,0,1-3.1,5.51c-1.26.88-3.31,1.5-3.18,1.13a13.77,13.77,0,0,1,2-1.28,41.52,41.52,0,0,0-4.12,1.58c-.84.53.2.07-.08,0s0-1.65-.24-2a10.23,10.23,0,0,0-2.66.6c.32,0,.68-.89.57-.92-1.28-.37.62.58,0-.3a16.81,16.81,0,0,1,0-1.82s.46-1.4.43-1.44c-.64-1,1.81-.05,2.14-.43.85-1,2.26-.16,2.26-.16l2-1.63Z"/><path class="cls-17" d="M292.51,204.14s-.29,8.26,2.25,11.31c0,0-21.09,11.31-23.48,12.54a20.41,20.41,0,0,0-4,2.68L293,223.42l6.6-6.16s1.23-3,.8-3.19-4.13-6-4.49-6.23S292.51,204.14,292.51,204.14Z"/></g><path class="cls-14" d="M293.62,201.74l.11-.87s-8.45,7.29-16.76,13.75c-2.93,2.28-7.77,4.45-9.37,5.53-9,6-10.43,8.83-15.25,10.44,0,0-4.85,1.38-6.15,1.89a6.08,6.08,0,0,0-2.54,2.21c-.91,1-1.57.81-2.37,1s-.42,1.14.93,1.14a3.22,3.22,0,0,0,2.48-.77l1.1,2.12a3.89,3.89,0,0,1-.42.32l-.06-.08-.1.18c-1.17.69-2.78.8-3.6-.34,0,0-.21-.77-.58-.69s-.37.39-.12,1.2a2.82,2.82,0,0,0,1.25,1.49,2.53,2.53,0,0,1-.75-.42s-.53-.42-.76-.24-.22.52.32,1.13a3,3,0,0,0,2.66.93l.09,0a2,2,0,0,1-1.14.2s-.76-.16-.89.08,0,.58.82.84a3.74,3.74,0,0,0,2.93-.5,5.21,5.21,0,0,0,1-.92l.1.14a2.69,2.69,0,0,1-1.64,1.54c-1.16.42-1.18.51-1.18.71s1,.29,2.28-.22a8.16,8.16,0,0,0,4.18-4c.26-.49.49-1,.71-1.49.33-.74,1-2.29,1-2.29l3.89-1.25c.84-.42,7.8-2.72,15.14-5.85,4.2-1.79,29-13.62,29-13.62Z"/><path class="cls-1" d="M348.62,202.18s-3-8.95-6.53-13.15c-4.31-5.06-14.29-4.71-20.1-4.23.3.94,0,.9.1,1,.29.44-2.28,8.6-7.64,9.61-5,.94-5.7-5.38-5.7-5.38a34.68,34.68,0,0,0-15.7,10.9s-3.18,11.52,6,14.47l3.31-1.52s-2.17,8.35,4.36,11.73c4.77,2.47,8-1.46,6.19,14.47,0,0,.22.17.59.49,9.93,8.51,26,3.2,31.33-5,0,0-1.55-8.81-3.63-16.15a96,96,0,0,0-3.7-9.6S346.2,209.16,348.62,202.18Z"/><path class="cls-18" d="M248.54,231.84c-1.19.38-2.07.53-2.35.64a6.08,6.08,0,0,0-2.54,2.21c-.91,1-1.57.81-2.37,1s-.42,1.14.93,1.14a3.22,3.22,0,0,0,2.48-.77l1.1,2.12a3.89,3.89,0,0,1-.42.32l-.06-.08-.1.18c-1.17.69-2.78.8-3.6-.34,0,0-.21-.77-.58-.69s-.37.39-.12,1.2a2.82,2.82,0,0,0,1.25,1.49,2.53,2.53,0,0,1-.75-.42s-.53-.42-.76-.24-.22.52.32,1.13a3,3,0,0,0,2.66.93l.09,0a2,2,0,0,1-1.14.2s-.76-.16-.89.08,0,.58.82.84a3.74,3.74,0,0,0,2.93-.5,5.21,5.21,0,0,0,1-.92l.1.14a3.45,3.45,0,0,1-1.64,1.54c-1.12.53-1.18.51-1.18.71s1,.29,2.28-.22a7.4,7.4,0,0,0,2.73-1.89"/><path class="cls-13" d="M331.72,199.09a76.31,76.31,0,0,1,1.89,14.25c.11,6.85-4,12.28-6.52,14s-1,7.87-.76,9.68a42.61,42.61,0,0,0,1.83,7.71s13.14-1.58,15.13-8.14c.71-2.36-2.48-19.94-5.75-26.82A94.07,94.07,0,0,0,331.72,199.09Z"/><path class="cls-14" d="M331.72,199.09a76.31,76.31,0,0,1,1.89,14.25c.11,6.85-4,12.28-6.52,14s-1,7.87-.76,9.68a42.61,42.61,0,0,0,1.83,7.71s13.14-1.58,15.13-8.14c.71-2.36-2.48-19.94-5.75-26.82A94.07,94.07,0,0,0,331.72,199.09Z"/><path class="cls-19" d="M337.53,209.78s-3.32-8.12-6.34-11.46"/><path class="cls-1" d="M335.24,185.32s-8.88-.17-6.12,28.67c1.64,17.15,6.59,45.22,8.81,53.58,1.64.79,6.53,2.35,6.53,2.35l20.11-11-5.22-29.79-11,1.76a67.49,67.49,0,0,1-12.93,3.79c-2-6.45-3.85-14.54-3.85-14.54-.54-10.5-.82-10-1-14.92-.18-5.16,0-17,6.43-19.12Z"/><path class="cls-13" d="M342,189c-2.06-2.3-5.16-3.86-10.92-4l-9.07.34c.07.42-.08.42,0,.5.29.43-2.25,8.61-7.6,9.64-5,1-5.72-5.35-5.72-5.35a33.87,33.87,0,0,0-9.22,4.82l0,.17s7.49-4,9.67-.27,7.36,7.66,16.66,2.76c6.2-3.27,5.53-8.71,16.29-8a3.24,3.24,0,0,0,.39,0C342.32,189.33,342.16,189.14,342,189Z"/><path class="cls-14" d="M342,189c-2.06-2.3-5.16-3.86-10.92-4l-9.07.34c.07.42-.08.42,0,.5.29.43-2.25,8.61-7.6,9.64-5,1-5.72-5.35-5.72-5.35a33.87,33.87,0,0,0-9.22,4.82l0,.17s7.49-4,9.67-.27,7.36,7.66,16.66,2.76c6.2-3.27,5.53-8.71,16.29-8a3.24,3.24,0,0,0,.39,0C342.32,189.33,342.16,189.14,342,189Z"/><path class="cls-1" d="M314.41,195.47c4.85-.93,7.78-7.91,7.52-8.31a14.5,14.5,0,0,1-.55-1.56l-.34,0-1.22-3.89-12.39,2.4s.87,3.48,1.37,6.35C308.81,190.5,309.56,196.4,314.41,195.47Z"/><path class="cls-17" d="M321.41,188.8a31.17,31.17,0,0,0-.11-3.19l-.26,0-1.12-3.58-.78-.18-11.71,2.27s.33,1.3.69,3c1.18,1.93,3.39,3.66,10.64,5.66A16.18,16.18,0,0,0,321.41,188.8Z"/><path class="cls-1" d="M304,180.91s4.88,7.69,11.34,5.72c5.88-1.79,4.33-11.44,4.33-11.44s1.75.72,1.24-2.48-2.22-3.3-3-1.75c.21-.41-.24-1.82-.32-2.28a12.07,12.07,0,0,0-.59-2.15,10.16,10.16,0,0,0-2.84-3.51,5.81,5.81,0,0,0-3.57-1.28,10.14,10.14,0,0,0-7.16,2.81,10.74,10.74,0,0,0-2.43,3.61,9.94,9.94,0,0,0-.15,6.56c.08.22.36,1.36.56,1.44,0,0-1.6-.62-1.29,1.34S302.38,183.54,304,180.91Z"/><path class="cls-1" d="M311.53,163.76s5.17-.88,6.41,7.2c0,0,1.42-2.24,2.4.18,1.08,2.68.63,3.49.32,3.87s-1,.17-1,.17a16.14,16.14,0,0,1-1.32,9.08s-3.14,7.13.81,8.83c2.57,1.11,6.2-5.79,11.56-7.23,3.17-.85,7.57.2,9,1.24a11.83,11.83,0,0,0-6.81-5.61c-5-1.63-7.89-2.6-8.9-8.79s-4.35-15.4-12.6-11.61Z"/><path class="cls-1" d="M337.63,210.21a79,79,0,0,0,2.7,13.68c1.83,5.41,5.41,6.6,5.41,6.6L338.35,210Z"/><path class="cls-1" d="M348.62,202.18s7.15,24.95,6.44,29.33S351.3,237,351.3,237l-7.42-7-2.24-6a51.21,51.21,0,0,0-1.47-6.66,54.89,54.89,0,0,0-2.64-7.55Z"/><path class="cls-20" d="M337.53,209.78s4.37,6.52,10.25,10.33a23.51,23.51,0,0,1,5.71,5l-12.94-4.68S339.27,212.94,337.53,209.78Z"/><path class="cls-1" d="M302.38,177s.74,0,.73-1.43c0-1.06-.74-3.25-.86-4.73-.27-3.44,2.78-4.27,5.78-4.92,5.33-1.15,6.49-3.7,4.58-6.75s-10.78,0-13.23,5.72c-1.69,4-.84,8-4.9,14.22,2.21-.63,3.67-2.53,5.06-3S302.38,177,302.38,177Z"/><ellipse class="cls-1" cx="308.83" cy="173.4" rx="0.62" ry="0.73" transform="translate(-44.45 148.11) rotate(-25.22)"/><ellipse class="cls-1" cx="315.72" cy="171.58" rx="0.62" ry="0.73" transform="translate(-43.02 150.95) rotate(-25.23)"/><path class="cls-19" d="M315.52,220.36a7.33,7.33,0,0,0,3,2.86,10.37,10.37,0,0,0,8.56,0"/><path class="cls-19" d="M302.39,213.9s1.64-5.83,2-8.21"/><path class="cls-19" d="M301.93,205.18s.51,3.89,1.45,4.71"/><path class="cls-21" d="M319.31,172s-.37,1,.3,1.39"/><path class="cls-21" d="M301.29,177.85a.8.8,0,0,1,.64.56c.19.53,0,1.35.71,1.57"/><path class="cls-15" d="M323.53,249.38s-.09,9.25,1.59,10.69a5,5,0,0,0,2.93.29"/><path class="cls-15" d="M326.71,249.09a58,58,0,0,0,1.14,10.22"/><path class="cls-15" d="M315.1,245.7s0,5-3.44,6.54"/><circle class="cls-1" cx="244.57" cy="237.99" r="3"/><polygon class="cls-1" points="335.45 234.64 337.28 240.4 344.46 268.99 364.03 258.77 359.24 226.92 335.45 234.64"/><circle class="cls-13" cx="244.57" cy="237.99" r="3"/><g class="cls-22"><path class="cls-1" d="M243.94,237c1.51-.51,3.45-.57,3.09,1.85a3.38,3.38,0,0,1-2.59,2.71l3.4-1.16s1.25-2.36,1.22-2.45-2.39-3-2.5-3.15a17.85,17.85,0,0,0-2.69-.38c-.14,0-2.17,2-2.17,2l-.14.24.14.22-.2.56A6.48,6.48,0,0,0,243.94,237Z"/></g><circle class="cls-14" cx="244.57" cy="237.99" r="3"/><path class="cls-1" d="M241.85,236.75a5.83,5.83,0,0,0,.91,0,5,5,0,0,0,2-.76,6.42,6.42,0,0,0,2.76-.3c.79-.23,2.43-1.69,1.7-2.19-.88-.6-3.62.92-3.62.92l-2.38.77-1.44,1Z"/><path class="cls-18" d="M242,235.72s.06.3,0,.38a1.07,1.07,0,0,1-.9-.1"/><path class="cls-1" d="M336.13,222.86a4.14,4.14,0,0,1-4.51-1.86c-1.7-2.41-1.79-.56-1.72.17a1.85,1.85,0,0,1-1.75-1.38,2.64,2.64,0,0,1-1.21-3.59,2.35,2.35,0,0,1-.1-3,1.85,1.85,0,0,1,1.19-2.46c2.19-1,6.19,1.77,9.14,5.2,4.21,4.88,13.82,8.34,13.82,8.34a8.09,8.09,0,0,1,6.2,6.52c.87,5.49.6,11.2-2.39,10.93a13.46,13.46,0,0,1-6.69-3.26C343,233.69,337.63,225.38,336.13,222.86Z"/><path class="cls-13" d="M336.13,222.86a4.17,4.17,0,0,1-4.51-1.86c-1.38-1.93-1.69-1.15-1.72.17a1.85,1.85,0,0,1-1.75-1.38,2.64,2.64,0,0,1-1.21-3.59,2.35,2.35,0,0,1-.1-3,1.85,1.85,0,0,1,1.19-2.46c2.19-1,6.19,1.77,9.14,5.2,4.21,4.88,13.82,8.34,13.82,8.34a8.09,8.09,0,0,1,6.2,6.52c.87,5.49.6,11.2-2.39,10.93a13.46,13.46,0,0,1-6.69-3.26C343,233.69,337.63,225.38,336.13,222.86Z"/><g class="cls-23"><path class="cls-24" d="M336.13,222.86a70.14,70.14,0,0,0,11.19,11.68c6.26,5,10.33,4.65,11.4,3.59s-1.23,4.07-1.23,4.07-9.15-.32-9.47-.54-11.83-16.21-11.83-16.21Z"/></g><path class="cls-14" d="M336.13,222.86a4.17,4.17,0,0,1-4.51-1.86c-1.38-1.93-1.69-1.15-1.72.17a1.85,1.85,0,0,1-1.75-1.38,2.64,2.64,0,0,1-1.21-3.59,2.35,2.35,0,0,1-.1-3,1.85,1.85,0,0,1,1.19-2.46c2.19-1,6.19,1.77,9.14,5.2,4.21,4.88,13.82,8.34,13.82,8.34a8.09,8.09,0,0,1,6.2,6.52c.87,5.49.6,11.2-2.39,10.93a13.46,13.46,0,0,1-6.69-3.26C343,233.69,337.63,225.38,336.13,222.86Z"/><path class="cls-25" d="M331.19,217.86a2.19,2.19,0,0,0-2.9.43,2.33,2.33,0,0,0-.1,1.62"/><path class="cls-25" d="M326.94,216.19a2.66,2.66,0,0,1,.71-1.11,2.81,2.81,0,0,1,3.1-.13"/><path class="cls-25" d="M326.86,213a2.65,2.65,0,0,1,3-.8"/><path class="cls-26" d="M340.38,218.7s5.76,3.42,7.83,4.35,4.4,1.52,5.71,2.66"/><circle class="cls-1" cx="303.01" cy="181.57" r="0.58"/><circle class="cls-1" cx="320.49" cy="174.93" r="0.58"/><path class="cls-1" d="M315.83,179.63c-1.26.64-3.36,1.47-5.18.91,0,0,1.31,3.08,3.81,2.43,2-.51,1.38-3.11,1.38-3.11A1.89,1.89,0,0,0,315.83,179.63Z"/><path class="cls-1" d="M315.83,179.63s0,.27.05.49-2.86,2.28-5.23.43C310.65,180.54,312.61,181.26,315.83,179.63Z"/><path class="cls-1" d="M315.58,182.17s-2-1-3,.62A2.46,2.46,0,0,0,315.58,182.17Z"/><ellipse class="cls-1" cx="308.22" cy="178.12" rx="2.4" ry="2.53" transform="translate(-6.73 12.2) rotate(-2.24)"/><ellipse class="cls-1" cx="316.95" cy="176.12" rx="2.4" ry="2.53" transform="matrix(1, -0.04, 0.04, 1, -6.65, 12.54)"/><path class="cls-1" d="M311.89,169s2.83-1.63,5.15.34a5.34,5.34,0,0,0-5,.22Z"/><path class="cls-1" d="M308.13,170.17s-3.24.39-3.92,3.36a5.34,5.34,0,0,1,4.15-2.84Z"/><ellipse class="cls-1" cx="312.49" cy="177.22" rx="0.37" ry="0.25" transform="translate(110.3 474.16) rotate(-85.31)"/><path class="cls-1" d="M329.21,195.07c1.13-1,2.28-2.27,2.67-2.7.94-3,2.53-5.52,5.15-6.37l-1.79-.75S330.87,185.17,329.21,195.07Z"/><path class="cls-21" d="M342.7,232.36a103.58,103.58,0,0,1-6.57-9.49,4.14,4.14,0,0,1-4.51-1.86c-1.7-2.41-1.79-.56-1.72.17a1.85,1.85,0,0,1-1.75-1.38,2.64,2.64,0,0,1-1.21-3.59,2.6,2.6,0,0,1,0-3.22,1.79,1.79,0,0,1,1.18-2.28"/><path class="cls-18" d="M243.72,241.59a3.74,3.74,0,0,0,.94-.55"/><path class="cls-18" d="M242.16,240.21l.57.18"/><path class="cls-18" d="M241.85,236.75a4.8,4.8,0,0,0,2.85-.74s2.53.2,3.92-.94"/><path class="cls-21" d="M275.67,219.12a2.34,2.34,0,0,1-1.49,1.49"/><path class="cls-1" d="M329.9,221.17l2.8,3.31-.8-3.11s-1-1.67-1.46-1.54S329.84,220.46,329.9,221.17Z"/><path class="cls-27" d="M335.45,234.58s5.32,7.66,9,31.51"/><path class="cls-1" d="M312,174.07l3.29,1.36c1.67.69-.24,2.55-2.11,2.63Z"/><path class="cls-13" d="M310.9,172.38a3.85,3.85,0,0,0,2.67,2.32c2,.46.43,2.38-.44,3.41"/><path class="cls-13" d="M310.9,172.38a5.24,5.24,0,0,0,1.35,1.4,3.91,3.91,0,0,0,.82.43c.29.13.56.14,1,.3a1.21,1.21,0,0,1,.82,1,1.86,1.86,0,0,1-.31,1.11,6.17,6.17,0,0,1-1.39,1.52,17,17,0,0,0,1-1.74,1.6,1.6,0,0,0,.16-.81c0-.21-.2-.35-.46-.45a8.29,8.29,0,0,1-1-.32,3.5,3.5,0,0,1-.9-.6A3.3,3.3,0,0,1,310.9,172.38Z"/><path class="cls-15" d="M313.14,242.47s4.06,7.71,20.35,5"/></g><path class="cls-28" d="M310.9,354.65s6,1.45,7.16,4.19c13.51,6.9,39.43,18.64,53.88,21.68,17.86,3.76,28.13-18.39-20.58-22.29-8.58-.69-14.52-2.76-18.94-3.9-9.06-2.34-11.13-3.93-11.13-3.93Z"/><path class="cls-29" d="M347.6,368.58s-.77,1.23,1.32,3.46c5.06,5.39,17.88,14.13,27.3,18.46,12.33,5.66,36,11.91,47.3,8.56s3.75-11.19-2.56-14.8c-14.29-8.18-42.67-14-56.51-15.38C353.67,367.84,348.68,366.22,347.6,368.58Z"/><path class="cls-30" d="M124.4,352.8H114.13a60.35,60.35,0,0,0-12.64,1.43l-17.07,4.21c-2.37.58-2,1.13.81,1.13h27a21.15,21.15,0,0,0,6.4-.92l9.54-4.42C129.94,353.4,128.37,352.8,124.4,352.8Z"/><path class="cls-31" d="M178.47,87.61v3.2a11.6,11.6,0,0,1-1.3.39,14.06,14.06,0,0,1-1.45.27V87.91h0v-.25a1.51,1.51,0,0,1,.19-.72l-.2-.42c-.08-.16,0-.23.15-.13l.31.21.15-.12-.07-.43c0-.18.06-.22.18-.08l.28.33a1.37,1.37,0,0,1,.38-.06A1.41,1.41,0,0,1,178.47,87.61Z"/><path class="cls-31" d="M178.18,88.91v1.56a7.34,7.34,0,0,1-2.17.32V87.67a1.09,1.09,0,1,1,2.17,0v1.24Z"/><circle class="cls-32" cx="177.42" cy="87.36" r="0.23"/><path class="cls-31" d="M175.36,88.52v3.2a11.75,11.75,0,0,1-1.3.39,14.22,14.22,0,0,1-1.45.27V88.82h0v-.25a1.51,1.51,0,0,1,.19-.72l-.2-.42c-.08-.16,0-.23.15-.13l.31.21.15-.12-.08-.43c0-.18.06-.22.18-.08l.28.33a1.37,1.37,0,0,1,.38-.06A1.41,1.41,0,0,1,175.36,88.52Z"/><path class="cls-31" d="M175.07,89.83v1.56a7.34,7.34,0,0,1-2.17.32V88.58a1.09,1.09,0,1,1,2.17,0v1.24Z"/><circle class="cls-32" cx="174.31" cy="88.28" r="0.23"/><path class="cls-33" d="M181.57,91.54c0,1.63-3.81,4.17-8.51,4.17s-8.51-2.54-8.51-4.17,3.81-1.75,8.51-1.75S181.57,89.91,181.57,91.54Z"/><ellipse class="cls-34" cx="303.23" cy="161.13" rx="46.6" ry="52.03"/><circle class="cls-35" cx="304.35" cy="140.83" r="1.26"/><circle class="cls-36" cx="304.32" cy="109.84" r="1.29"/><circle class="cls-37" cx="304.44" cy="115.83" r="5"/><polygon class="cls-35" points="311.97 120.81 297.06 120.81 299.61 116.05 309.43 116.05 311.97 120.81"/><polygon class="cls-38" points="309.22 138.75 299.95 138.75 297.41 122.05 311.76 122.05 309.22 138.75"/><rect class="cls-39" x="298.19" y="138.75" width="12.79" height="1.5"/><polygon class="cls-40" points="307.97 138.75 301.21 138.75 298.94 122.13 310.37 122.13 307.97 138.75"/><rect class="cls-41" x="295.02" y="120.62" width="18.79" height="1.5"/><circle class="cls-42" cx="304.32" cy="106.65" r="3.32"/><circle class="cls-43" cx="304.69" cy="128.78" r="4.09"/><circle class="cls-32" cx="304.69" cy="130.45" r="1.74"/><ellipse class="cls-44" cx="113.19" cy="160.87" rx="46.6" ry="52.03"/><circle class="cls-35" cx="114.18" cy="140.32" r="1.26"/><circle class="cls-45" cx="114.16" cy="109.33" r="1.29"/><circle class="cls-46" cx="114.27" cy="115.32" r="5"/><polygon class="cls-35" points="121.81 120.3 106.9 120.3 109.44 115.54 119.27 115.54 121.81 120.3"/><polygon class="cls-47" points="119.06 138.24 109.79 138.24 107.25 121.54 121.6 121.54 119.06 138.24"/><rect class="cls-48" x="108.03" y="138.24" width="12.79" height="1.5"/><polygon class="cls-40" points="117.8 138.24 111.04 138.24 108.78 121.62 120.2 121.62 117.8 138.24"/><rect class="cls-49" x="104.85" y="120.11" width="18.79" height="1.5"/><circle class="cls-42" cx="114.16" cy="106.14" r="3.32"/><circle class="cls-43" cx="114.53" cy="128.27" r="4.09"/><circle class="cls-32" cx="114.53" cy="129.94" r="1.74"/><rect class="cls-50" x="146.67" y="120.41" width="125.18" height="219.97"/><rect class="cls-50" x="145.92" y="120.41" width="125.18" height="219.97"/><rect class="cls-51" x="155.97" y="120.41" width="106.59" height="219.97"/><g class="cls-52"><polygon class="cls-53" points="235.79 320.55 251.66 320.55 251.66 251.42 235.79 256.41 235.79 320.55"/><rect class="cls-53" x="229.84" y="243.15" width="26.13" height="6.61"/><path class="cls-53" d="M249.12,195.71S246.32,204,248,210.58s5.29,15.53.16,27.26L246.48,240h-8.42V196"/><rect class="cls-51" x="240.98" y="259.15" width="5.62" height="61.19"/><rect class="cls-53" x="254.82" y="147.2" width="12.21" height="29.37"/><rect class="cls-51" x="258.4" y="151.43" width="10.23" height="20.91"/></g><polygon class="cls-54" points="241.71 335.23 159.78 340.38 159.78 120.41 241.71 125.56 241.71 335.23"/><polygon class="cls-55" points="241.71 335.23 159.78 340.38 159.78 120.41 241.71 125.56 241.71 335.23"/><polyline class="cls-56" points="168.48 127.39 232.59 132.32 232.59 329.23"/><polygon class="cls-57" points="241.71 159.49 179.55 339.3 241.71 335.23 241.71 159.49"/><polygon class="cls-58" points="234.25 235.13 241.72 261.34 241.72 233.82 234.25 235.13"/><rect class="cls-59" x="137.73" y="342.17" width="143.07" height="11.09"/><polygon class="cls-60" points="280.8 342.17 137.73 342.17 146.67 340.26 272.13 340.26 280.8 342.17"/><rect class="cls-50" x="138.09" y="107.6" width="142.35" height="10.37"/><rect class="cls-50" x="128.43" y="94.72" width="161.67" height="10.37"/><polygon class="cls-60" points="280.35 107.55 138 107.55 128.43 105.04 290.1 105.04 280.35 107.55"/><polygon class="cls-60" points="272.09 120.42 146.27 120.42 137.82 117.92 280.71 117.92 272.09 120.42"/><polygon class="cls-61" points="275.6 372.77 149.26 372.77 168.85 359.36 254.91 359.36 275.6 372.77"/><polygon class="cls-31" points="275.6 372.1 149.26 372.1 168.85 358.24 254.91 358.24 275.6 372.1"/><path class="cls-62" d="M321.69,348.66l-7.81,1.49c-3.4.66-4.62,2.2-3.82,3.64,1.64,2.9,12.28.81,12.28.81l4.95-1.53-.24-4.77Z"/><path class="cls-51" d="M321.69,348.66l-7.81,1.49c-3.4.66-4.62,2.2-3.82,3.64,1.64,2.9,12.28.81,12.28.81l4.95-1.53-.24-4.77Z"/><path class="cls-63" d="M321.83,348.61l-5,1s-1.68.67-.88,1.12,7.08,0,8.94-1.22S321.83,348.61,321.83,348.61Z"/><path class="cls-62" d="M325.86,350.21a52.15,52.15,0,0,1-7,5.6c-3.4,2.15-1.07,3.64,1.61,3.4a21.67,21.67,0,0,0,8.46-2.33,13.71,13.71,0,0,0,3.46-2.56V349.8Z"/><path class="cls-51" d="M325.86,350.21a52.15,52.15,0,0,1-7,5.6c-3.4,2.15-1.07,3.64,1.61,3.4a21.67,21.67,0,0,0,8.46-2.33,13.71,13.71,0,0,0,3.46-2.56V349.8Z"/><path class="cls-63" d="M326,350.3s-3.82,2.63-2.77,3.62a4.05,4.05,0,0,0,3.73,0,10.22,10.22,0,0,0,3.59-3.35l-.75-.27Z"/><path class="cls-51" d="M306,236.57A117.22,117.22,0,0,0,303.15,261a122.23,122.23,0,0,0,5,38.45c3.4,11.8,13.77,49.54,13.77,49.54a7.89,7.89,0,0,0,4.2.58s-1.52-44.75-1.52-49.4.18-21.82,1.43-30.58,5.54-13.77,8.23-25.75-15.56-10.91-16.1-10.91S306,236.57,306,236.57Z"/><g class="cls-12"><path class="cls-64" d="M323.63,349.4l4.47-.27-9.45-81s-1.85,12.8-.84,33.52S323.63,349.4,323.63,349.4Z"/></g><path class="cls-51" d="M321.93,229.86s-2.15,26.29-2.32,37.2a240.73,240.73,0,0,0,2.15,34.34c1.43,10.37,4.11,48.82,4.11,48.82s3.7,1.67,6.62-.18c0,0,1.61-12.16,3.76-21.94a59.66,59.66,0,0,0,.48-24.2c-1.19-6.91,6.92-30.52,9.06-40.3s-1.25-22.29-7.84-31.59Z"/><path class="cls-65" d="M319.42,258.19s-.6,9.74-.33,17,1.23,15.87,2.66,26.24,4.11,48.82,4.11,48.82"/><path class="cls-51" d="M294.56,172.64a10.29,10.29,0,0,0,.76-5.34c-.27-3.44,1.09-4.69,4-5.73s8.29-2.89,6.38-5.94-10.2-.87-12.71,4.63-.76,8.13-2.78,11.12-6.71,9.65-5.52,15.91c1.4,7.34,5.22,8.53,5.43,12.85.29,6-2.72,9.06-1.7,15.63,1.67,10.71,17.3,12.05,21.38,2.93,2.13-4.75,4.24-19.45,4-20.21s-16.58-23.12-16.58-23.12Z"/><g class="cls-12"><path class="cls-66" d="M346.14,261.49c0-.24.06-.47.09-.71,0-.08,0-.15,0-.23,0-.24,0-.49.07-.74,0,0,0-.1,0-.15,0-.28,0-.55.05-.83,0-.06,0-.11,0-.17,0-.27,0-.54,0-.82,0-.09,0-.18,0-.28s0-.48,0-.72,0-.25,0-.37,0-.42,0-.64,0-.25,0-.37,0-.43,0-.64,0-.24,0-.35,0-.44-.06-.66,0-.2,0-.29-.05-.49-.08-.73c0-.09,0-.17,0-.26,0-.26-.07-.51-.11-.77l0-.25c0-.26-.08-.52-.13-.78l-.06-.29c0-.25-.09-.5-.14-.75l-.07-.33c-.05-.24-.1-.47-.15-.71l-.09-.38-.16-.66-.11-.42-.16-.61-.13-.43c-.06-.2-.11-.4-.18-.61l-.13-.41-.2-.61-.16-.46c-.06-.19-.12-.37-.19-.56l-.18-.49-.19-.52-.21-.52-.19-.49-.25-.59-.17-.41-.27-.6-.18-.4-.28-.59-.18-.39-.31-.62-.18-.35-.33-.63-.17-.33-.38-.67-.15-.27-.37-.63-.18-.3-.4-.64-.17-.27-.42-.65-.17-.25-.45-.65-.15-.22c-2.59,3.89-7.39,7.94-16.63,9.28,0,0,5.08,25.3,10.69,28.52,3.59,2.06,1.48,28.65,1.63,39.14.18,13-2.91,34.38-4.72,41.93a6.06,6.06,0,0,0,3.56-.86s1.61-12.16,3.76-21.94a59.66,59.66,0,0,0,.48-24.2c-1-5.8,4.55-23.36,7.63-34.64h0l.2-.72,0-.16.25-1,.14-.54.11-.43.17-.68.06-.24.21-.88,0-.21.2-.85q.2-.92.34-1.86C346.12,261.66,346.13,261.57,346.14,261.49Z"/></g><path class="cls-67" d="M286.7,198.21l.11-.87s-8.45,7.29-16.76,13.75c-2.93,2.28-7.77,4.45-9.37,5.53-5.69,3.82-11.81,8.13-16.18,10.48a22.17,22.17,0,0,1-5.22,1.85,6.08,6.08,0,0,0-2.54,2.21c-.91,1-1.57.81-2.37,1s-.42,1.14.93,1.14a3.22,3.22,0,0,0,2.48-.77l1.1,2.12a3.89,3.89,0,0,1-.42.32l-.06-.08-.1.18c-1.17.69-2.78.8-3.6-.34,0,0-.21-.77-.58-.69s-.37.39-.12,1.2a2.82,2.82,0,0,0,1.25,1.49,2.53,2.53,0,0,1-.75-.42s-.53-.42-.76-.24-.22.52.32,1.13a3,3,0,0,0,2.66.93l.09,0a2,2,0,0,1-1.14.2s-.76-.16-.89.08,0,.58.82.84a3.74,3.74,0,0,0,2.93-.5,5.21,5.21,0,0,0,1-.92l.1.14a3.45,3.45,0,0,1-1.64,1.54c-1.12.53-1.18.51-1.18.71s1,.29,2.28-.22a8.16,8.16,0,0,0,4.18-4c.26-.49.49-1,.71-1.49.33-.74,1-2.29,1-2.29l3.89-1.25c.84-.42,7.8-2.72,15.14-5.85,4.2-1.79,29-13.62,29-13.62Z"/><g class="cls-68"><path class="cls-69" d="M241.47,231.23c1.15-.61,1.54,1.13,1.52,2.12a6.56,6.56,0,0,1-3.1,5.51c-1.26.88-3.31,1.5-3.18,1.13a13.77,13.77,0,0,1,2-1.28,41.52,41.52,0,0,0-4.12,1.58c-.84.53.2.07-.08,0s0-1.65-.24-2a10.23,10.23,0,0,0-2.66.6c.32,0,.68-.89.57-.92-1.28-.37.62.58,0-.3a16.81,16.81,0,0,1,0-1.82s.46-1.4.43-1.44c-.64-1,1.81-.05,2.14-.43.85-1,2.26-.16,2.26-.16l2-1.63Z"/><path class="cls-70" d="M285.58,200.61s-.29,8.26,2.25,11.31c0,0-21.09,11.31-23.48,12.54a20.41,20.41,0,0,0-4,2.68l25.73-7.25,6.6-6.16s1.23-3,.8-3.19-4.13-6-4.49-6.23S285.58,200.61,285.58,200.61Z"/></g><path class="cls-71" d="M341.69,198.65s-3-8.95-6.53-13.15c-4.31-5.06-14.29-4.71-20.1-4.23.3.94,0,.9.1,1,.29.44-2.28,8.6-7.64,9.61-5,.94-5.7-5.38-5.7-5.38a34.68,34.68,0,0,0-15.7,10.9s-3.18,11.52,6,14.47l3.31-1.52s-2.17,8.35,4.36,11.73c4.77,2.47,8-1.46,6.19,14.47,0,0,.22.17.59.49,9.93,8.51,26,3.2,31.33-5,0,0-1.55-8.81-3.63-16.15a96,96,0,0,0-3.7-9.6S339.27,205.63,341.69,198.65Z"/><path class="cls-72" d="M241.62,228.3c-1.19.38-2.07.53-2.35.64a6.08,6.08,0,0,0-2.54,2.21c-.91,1-1.57.81-2.37,1s-.42,1.14.93,1.14a3.22,3.22,0,0,0,2.48-.77l1.1,2.12a3.89,3.89,0,0,1-.42.32l-.06-.08-.1.18c-1.17.69-2.78.8-3.6-.34,0,0-.21-.77-.58-.69s-.37.39-.12,1.2a2.82,2.82,0,0,0,1.25,1.49,2.53,2.53,0,0,1-.75-.42s-.53-.42-.76-.24-.22.52.32,1.13a3,3,0,0,0,2.66.93l.09,0a2,2,0,0,1-1.14.2s-.76-.16-.89.08,0,.58.82.84a3.74,3.74,0,0,0,2.93-.5,5.21,5.21,0,0,0,1-.92l.1.14a3.45,3.45,0,0,1-1.64,1.54c-1.12.53-1.18.51-1.18.71s1,.29,2.28-.22a7.4,7.4,0,0,0,2.73-1.89"/><path class="cls-73" d="M324.79,195.56a76.31,76.31,0,0,1,1.89,14.25c.11,6.85-4,12.28-6.52,14s-1,7.87-.76,9.68a42.61,42.61,0,0,0,1.83,7.71s13.14-1.58,15.13-8.14c.71-2.36-2.48-19.94-5.75-26.82A94.07,94.07,0,0,0,324.79,195.56Z"/><path class="cls-74" d="M330.6,206.25s-3.32-8.12-6.34-11.46"/><path class="cls-40" d="M328.31,181.78s-8.88-.17-6.12,28.67c1.64,17.15,6.59,45.22,8.81,53.58,1.64.79,6.53,2.35,6.53,2.35l20.11-11-5.22-29.79-11,1.76a67.49,67.49,0,0,1-12.93,3.79c-2-6.45-3.85-14.54-3.85-14.54-.54-10.5-.82-10-1-14.92-.18-5.16,0-17,6.43-19.12Z"/><path class="cls-75" d="M335.07,185.43c-2.06-2.3-5.16-3.86-10.92-4l-9.07.34c.07.42-.08.42,0,.5.29.43-2.25,8.61-7.6,9.64-5,1-5.72-5.35-5.72-5.35a33.87,33.87,0,0,0-9.22,4.82l0,.17s7.49-4,9.67-.27,7.36,7.66,16.66,2.76c6.2-3.27,5.53-8.71,16.29-8a3.24,3.24,0,0,0,.39,0C335.39,185.79,335.23,185.61,335.07,185.43Z"/><path class="cls-63" d="M307.48,191.94c4.85-.93,7.78-7.91,7.52-8.31a14.5,14.5,0,0,1-.55-1.56l-.34,0-1.22-3.89-12.39,2.4s.87,3.48,1.37,6.35C301.88,187,302.63,192.87,307.48,191.94Z"/><path class="cls-76" d="M314.48,185.27a31.17,31.17,0,0,0-.11-3.19l-.26,0L313,178.52l-.78-.18-11.71,2.27s.33,1.3.69,3c1.18,1.93,3.39,3.66,10.64,5.66A16.18,16.18,0,0,0,314.48,185.27Z"/><path class="cls-67" d="M297.1,177.38s4.88,7.69,11.34,5.72c5.88-1.79,4.33-11.44,4.33-11.44s1.75.72,1.24-2.48-2.22-3.3-3-1.75c.21-.41-.24-1.82-.32-2.28a12.07,12.07,0,0,0-.59-2.15,10.16,10.16,0,0,0-2.84-3.51,5.81,5.81,0,0,0-3.57-1.28,10.14,10.14,0,0,0-7.16,2.81,10.74,10.74,0,0,0-2.43,3.61,9.94,9.94,0,0,0-.15,6.56c.08.22.36,1.36.56,1.44,0,0-1.6-.62-1.29,1.34S295.45,180,297.1,177.38Z"/><path class="cls-51" d="M304.6,160.23s5.17-.88,6.41,7.2c0,0,1.42-2.24,2.4.18,1.08,2.68.63,3.49.32,3.87s-1,.17-1,.17a16.14,16.14,0,0,1-1.32,9.08s-3.14,7.13.81,8.83c2.57,1.11,6.2-5.79,11.56-7.23,3.17-.85,7.57.2,9,1.24A11.83,11.83,0,0,0,326,178c-5-1.63-7.89-2.6-8.9-8.79s-4.35-15.4-12.6-11.61Z"/><path class="cls-77" d="M330.7,206.67a79,79,0,0,0,2.7,13.68c1.83,5.41,5.41,6.6,5.41,6.6l-7.39-20.51Z"/><path class="cls-67" d="M341.69,198.65s7.15,24.95,6.44,29.33-3.76,5.45-3.76,5.45l-7.42-7-2.24-6a51.21,51.21,0,0,0-1.47-6.66,54.89,54.89,0,0,0-2.64-7.55Z"/><path class="cls-78" d="M330.6,206.25s4.37,6.52,10.25,10.33a23.51,23.51,0,0,1,5.71,5l-12.94-4.68S332.34,209.41,330.6,206.25Z"/><path class="cls-51" d="M295.45,173.45s.74,0,.73-1.43c0-1.06-.74-3.25-.86-4.73-.27-3.44,2.78-4.27,5.78-4.92,5.33-1.15,6.49-3.7,4.58-6.75s-10.78,0-13.23,5.72c-1.69,4-.84,8-4.9,14.22,2.21-.63,3.67-2.53,5.06-3S295.45,173.45,295.45,173.45Z"/><ellipse class="cls-79" cx="301.9" cy="169.87" rx="0.62" ry="0.73" transform="translate(-43.6 144.82) rotate(-25.22)"/><ellipse class="cls-79" cx="308.8" cy="168.05" rx="0.62" ry="0.73" transform="translate(-42.17 147.66) rotate(-25.23)"/><path class="cls-74" d="M308.59,216.83a7.33,7.33,0,0,0,3,2.86,10.37,10.37,0,0,0,8.56,0"/><path class="cls-74" d="M295.46,210.37s1.64-5.83,2-8.21"/><path class="cls-74" d="M295,201.64s.51,3.89,1.45,4.71"/><path class="cls-80" d="M312.38,168.43s-.37,1,.3,1.39"/><path class="cls-80" d="M294.36,174.32a.8.8,0,0,1,.64.56c.19.53,0,1.35.71,1.57"/><path class="cls-65" d="M316.6,245.85s-.09,9.25,1.59,10.69a5,5,0,0,0,2.93.29"/><path class="cls-65" d="M319.78,245.56a58,58,0,0,0,1.14,10.22"/><path class="cls-65" d="M308.18,242.17s0,5-3.44,6.54"/><circle class="cls-50" cx="237.65" cy="234.46" r="3"/><polygon class="cls-40" points="328.52 231.11 330.35 236.87 337.53 265.46 357.1 255.24 352.31 223.38 328.52 231.11"/><g class="cls-81"><path class="cls-82" d="M237,233.45c1.51-.51,3.45-.57,3.09,1.85a3.38,3.38,0,0,1-2.59,2.71l3.4-1.16s1.25-2.36,1.22-2.45-2.39-3-2.5-3.15a17.85,17.85,0,0,0-2.69-.38c-.14,0-2.17,2-2.17,2l-.14.24.14.22-.2.56A6.48,6.48,0,0,0,237,233.45Z"/></g><path class="cls-63" d="M234.92,233.22a5.83,5.83,0,0,0,.91,0,5,5,0,0,0,2-.76,6.42,6.42,0,0,0,2.76-.3c.79-.23,2.43-1.69,1.7-2.19-.88-.6-3.62.92-3.62.92l-2.38.77-1.44,1Z"/><path class="cls-72" d="M235.11,232.18s.06.3,0,.38a1.07,1.07,0,0,1-.9-.1"/><path class="cls-67" d="M329.2,219.33a4.14,4.14,0,0,1-4.51-1.86c-1.7-2.41-1.79-.56-1.72.17a1.85,1.85,0,0,1-1.75-1.38,2.64,2.64,0,0,1-1.21-3.59,2.35,2.35,0,0,1-.1-3,1.85,1.85,0,0,1,1.19-2.46c2.19-1,6.19,1.77,9.14,5.2,4.21,4.88,13.82,8.34,13.82,8.34a8.09,8.09,0,0,1,6.2,6.52c.87,5.49.6,11.2-2.39,10.93a13.46,13.46,0,0,1-6.69-3.26C336.11,230.16,330.7,221.85,329.2,219.33Z"/><g class="cls-83"><path class="cls-84" d="M329.2,219.33A70.14,70.14,0,0,0,340.39,231c6.26,5,10.33,4.65,11.4,3.59s-1.23,4.07-1.23,4.07-9.15-.32-9.47-.54-11.83-16.21-11.83-16.21Z"/></g><path class="cls-85" d="M324.26,214.32a2.19,2.19,0,0,0-2.9.43,2.33,2.33,0,0,0-.1,1.62"/><path class="cls-85" d="M320,212.66a2.66,2.66,0,0,1,.71-1.11,2.81,2.81,0,0,1,3.1-.13"/><path class="cls-85" d="M319.93,209.5a2.65,2.65,0,0,1,3-.8"/><path class="cls-86" d="M333.45,215.16s5.76,3.42,7.83,4.35,4.4,1.52,5.71,2.66"/><circle class="cls-32" cx="296.08" cy="178.03" r="0.58"/><circle class="cls-32" cx="313.56" cy="171.4" r="0.58"/><path class="cls-87" d="M308.9,176.09c-1.26.64-3.36,1.47-5.18.91,0,0,1.31,3.08,3.81,2.43,2-.51,1.38-3.11,1.38-3.11A1.89,1.89,0,0,0,308.9,176.09Z"/><path class="cls-32" d="M308.9,176.09s0,.27.05.49-2.86,2.28-5.23.43C303.72,177,305.68,177.73,308.9,176.09Z"/><path class="cls-88" d="M308.65,178.64s-2-1-3,.62A2.46,2.46,0,0,0,308.65,178.64Z"/><ellipse class="cls-89" cx="301.29" cy="174.58" rx="2.4" ry="2.53" transform="translate(-6.6 11.92) rotate(-2.24)"/><ellipse class="cls-90" cx="310.02" cy="172.59" rx="2.4" ry="2.53" transform="translate(-6.52 12.27) rotate(-2.24)"/><path class="cls-79" d="M305,165.46s2.83-1.63,5.15.34a5.34,5.34,0,0,0-5,.22Z"/><path class="cls-79" d="M301.21,166.63S298,167,297.28,170a5.34,5.34,0,0,1,4.15-2.84Z"/><ellipse class="cls-88" cx="305.56" cy="173.69" rx="0.37" ry="0.25" transform="translate(107.46 464.01) rotate(-85.31)"/><path class="cls-91" d="M322.28,191.53c1.13-1,2.28-2.27,2.67-2.7.94-3,2.53-5.52,5.15-6.37l-1.79-.75S323.94,181.63,322.28,191.53Z"/><path class="cls-92" d="M335.77,228.82a103.58,103.58,0,0,1-6.57-9.49,4.14,4.14,0,0,1-4.51-1.86c-1.7-2.41-1.79-.56-1.72.17a1.85,1.85,0,0,1-1.75-1.38,2.64,2.64,0,0,1-1.21-3.59,2.6,2.6,0,0,1,0-3.22,1.79,1.79,0,0,1,1.18-2.28"/><path class="cls-72" d="M236.79,238.06a3.74,3.74,0,0,0,.94-.55"/><path class="cls-72" d="M235.23,236.68l.57.18"/><path class="cls-72" d="M234.92,233.22a4.8,4.8,0,0,0,2.85-.74s2.53.2,3.92-.94"/><path class="cls-80" d="M268.74,215.59a2.34,2.34,0,0,1-1.49,1.49"/><path class="cls-91" d="M323,217.64l2.8,3.31-.8-3.11s-1-1.67-1.46-1.54S322.91,216.93,323,217.64Z"/><path class="cls-93" d="M328.52,231s5.32,7.66,9,31.51"/><path class="cls-94" d="M305.1,170.54l3.29,1.36c1.67.69-.24,2.55-2.11,2.63Z"/><path class="cls-67" d="M304,168.85a3.85,3.85,0,0,0,2.67,2.32c2,.46.43,2.38-.44,3.41"/><path class="cls-95" d="M304,168.85a5.23,5.23,0,0,0,1.35,1.4,3.9,3.9,0,0,0,.82.43c.29.13.56.14,1,.3a1.21,1.21,0,0,1,.82,1,1.86,1.86,0,0,1-.31,1.11,6.17,6.17,0,0,1-1.39,1.52,17,17,0,0,0,1-1.74,1.6,1.6,0,0,0,.16-.81c0-.21-.2-.35-.46-.45a8.29,8.29,0,0,1-1-.32,3.5,3.5,0,0,1-.9-.6A3.3,3.3,0,0,1,304,168.85Z"/><path class="cls-79" d="M380.17,363.2s1.22,3,4.7.83,10.46-7.46,7.54-11.87-11.2-.19-11.2-.19Z"/><polygon class="cls-96" points="381.96 362.36 380.09 354.88 389.69 348.53 393.44 354.77 385.45 362.36 381.96 362.36"/><path class="cls-67" d="M397.75,142.14s2.55,5.3,4.79,8.8c.5,3-11.82-1.13-11.82-1.13l3.28-11Z"/><path class="cls-97" d="M372.08,159.28s-3.22,4-3.3,5.21a2.33,2.33,0,0,0,1.16,1.9Z"/><path class="cls-98" d="M372.08,159.28s-3.22,4-3.3,5.21a2.33,2.33,0,0,0,1.16,1.9Z"/><path class="cls-99" d="M370.37,364.39s2.95,8.83-1.53,10.26c-5.51,1.76-18.55-3-20.94-5-.85-1.4-.25-6.21,7.64-4.65,2.82.55,5.62-.24,6.52-2.75S370.37,364.39,370.37,364.39Z"/><g class="cls-100"><path class="cls-32" d="M347.6,368.58a43.25,43.25,0,0,0,19.05,5.32s4.15-.5,4.59-2.28,1.46,1.42,1.38,1.54-3,3.35-3.14,3.35-12.89-1.1-12.68-1.06-10.13-4.92-10.22-5.09a13.08,13.08,0,0,1,0-1.82C346.59,368.41,347.6,368.58,347.6,368.58Z"/></g><path class="cls-101" d="M355.23,364.43a3.05,3.05,0,0,0-2.4,1.94"/><path class="cls-101" d="M357,364.78a3.06,3.06,0,0,0-2.4,1.94"/><path class="cls-101" d="M359.27,364.64a4.32,4.32,0,0,0-2.58,2.37"/><path class="cls-102" d="M402.05,262.95a21.77,21.77,0,0,1-2.27,8.29c-4.14,8.74-8,6-13.51,28.39-2.43,9.77-8.52,42.77-8.52,42.77s-3.68,19.28-4.84,20.54-9,4.57-14.35-.81c0,0,4-42.86,4.66-55.33s11.12-42.77,11-43.4S393,259,393,259Z"/><path class="cls-51" d="M402.05,263a21.77,21.77,0,0,1-2.27,8.29c-4.14,8.74-8,6-13.51,28.39-2.43,9.77-8.52,42.77-8.52,42.77s-3.68,19.28-4.84,20.54-9,4.57-14.35-.81c0,0,4-42.86,4.66-55.33s11.12-42.77,11-43.4S393,259.07,393,259.07Z"/><path class="cls-79" d="M378.83,141.15s1.25,3,2.32,3.22,1.5-3.93,1.5-3.93a12.68,12.68,0,0,0-1.26-1A14.83,14.83,0,0,0,378.83,141.15Z"/><rect class="cls-103" x="381.41" y="169.16" width="10.07" height="12.32"/><path class="cls-104" d="M384.89,276.67s12.32-10.25,15.83-14.15c1.08,5.08-5,11.68-9.08,19a69.1,69.1,0,0,0-6.94,20.1L381,321.73l-6.2-4.56-.91-26.64Z"/><path class="cls-105" d="M367.57,183.84a17.33,17.33,0,0,0-2.81,1,6.75,6.75,0,0,0-2.64,4"/><path class="cls-96" d="M359.78,192.77c.66-1.83,1.17-3.33,1.57-4.56,1.39-4.21,1.69-5.27,2.07-5.83.79-1.16,2.44-1.68,4.15-2.66,1.36-.78,3.51-.77,4.17-.88.82-.15,1.34-.1.9.77s-3.23,1.38-3.23,1.38-2.84,1.48-3.13,3.37l.29,2.59.22,7.63-3.49,3.27-3.78-3.42Z"/><path class="cls-106" d="M365.86,184.4l-3,2.86s.69-3.55,1.62-4.34c.32-.27,2-1.21,3.61-2.19a14.56,14.56,0,0,1,3.36-1c1.46-.38,1.4-.74,1.4-.74a1.24,1.24,0,0,1-.16.58c-.1.16-6,4.6-6,4.6Z"/><path class="cls-51" d="M361.7,268.57s-3.41,36.94-1.26,44.66,13.63,38.74,19.73,50a12.87,12.87,0,0,1,1.47-5.19c2.26-3.95,6.78-8,11.27-5.39,0,0-11.84-29.59-13.63-37a28.56,28.56,0,0,1-1-7.55,49.42,49.42,0,0,1,1.45-9.4c1.34-6.37,7.44-29.68,7.44-29.68l-10.85-10.58-13.63-1.08Z"/><path class="cls-96" d="M376.42,151.92a26.67,26.67,0,0,0-4.82,8.42A55.28,55.28,0,0,0,369.07,171c-1.26,9.64,5.81,6.95,5.81,6.95l8.87-4.53s3.5-15.29,1.79-19.69S376.42,151.92,376.42,151.92Z"/><path class="cls-65" d="M392.91,352.62s-11.84-29.59-13.63-37c0,0-.72-3.64-1-6.06-.18-1.88.06-4.52,1.4-10.89s3.87-16.09,3.87-16.09l1.31-6a85,85,0,0,0,7.3-6"/><path class="cls-107" d="M377.23,152.62a32.25,32.25,0,0,1,1.09,10.91c-.53,4.71-5.07,16.45-8.91,12.55,0,0,.61,2.58,4.23,2.42,3.42-.15,10.64-9.81,10.64-9.81l-1.89-14.39L378.69,151Z"/><path class="cls-51" d="M369.91,166.37s-2.94,10.18,1.39,11.85a13.24,13.24,0,0,0,7.09.43l6.23-7-2.22-3.73a6.57,6.57,0,0,1-4.1,1.26,4.77,4.77,0,0,1-3.8-1.61A5.75,5.75,0,0,0,369.91,166.37Z"/><path class="cls-101" d="M376.32,258.37"/><path class="cls-67" d="M371.15,189.68c.84-.9,3.65-7.56,3.65-7.56a59,59,0,0,0,6.28-3.53c3-2,6.5-7.73,6.5-7.73l-5.32-3.48-1.71,2.15s-1.37,1.72-2.83,4-3.84,6-7,6.89c-4,1.08-4.6,3.87-4.6,3.87l1.5,6.18Z"/><path class="cls-99" d="M393.44,354.77s5,4,3.22,8.46c-2.44,6.28-5.73,14.67-7.61,16.74s-9.26,2.22-11.39.63c-2.31-1.72-2.43-4.24-1.41-5.58.32-.42,1.34-1.79,4.57-1,0,0,.78-9.58,1-11.19S387.7,351,393.44,354.77Z"/><g class="cls-108"><path class="cls-32" d="M397.16,362.86s-.5-5.36-4.36-4.11-5.67,4.54-6.88,10.19c-.67,3.15-1.9,7.65-2.8,10.54-.67,2.18-6.58-.11-7,.21-1.12.87,10.94,4.61,10.94,4.61l8.72-9.59Z"/><path class="cls-109" d="M397.53,364s-.5-5.36-4.36-4.11-5.27,4.69-6.48,10.33a82.73,82.73,0,0,1-3.2,10.4,5.32,5.32,0,0,1-2.29,2.57c-1.12.87,6.23,2.24,6.23,2.24l8.72-9.59Z"/></g><path class="cls-51" d="M375,149.75c-3.43,3-.93,2.74,2.16,3.31s3,1.15,2.7,4.26a4.64,4.64,0,0,0,2.15,4.11c.41.31-.37,2.85.1,3.11,3.29,1.83,9,.2,9,.2s3.17-3.25,2.52-10.49S379.68,145.66,375,149.75Z"/><path class="cls-110" d="M395.64,140.52s1.24,6.46-1,11.1l5.81.47s-1.75-4.33-2.39-6.76-1.34-4.55-1.34-4.55l-1.26-.41"/><ellipse class="cls-79" cx="375.85" cy="160.28" rx="0.62" ry="0.77"/><path class="cls-51" d="M379.3,140.57c.88,1.45,1.21,2.07,4.66,0s2.63-6,4.46-5.46,3.28,4.17,5,1.44l.72-1.39,1.57,5.18a18.17,18.17,0,0,1,1.89,2.08,9.47,9.47,0,0,1,1.37,2.24s.46-1.44-.43-5.5c-.85-3.89-2.84-9.85-8.87-9S377,136.84,379.3,140.57Z"/><path class="cls-67" d="M380.27,139.26c-.51,1-.41,3.66,1,6.67.49,1,1.14,2.08,1.55,3.12,1.37,3.43,3.36,4.67,5.43,4.88.91.09,2.86-1.73,3.73-2s1.47.71,2.09,0c1.21-1.35,2.87-3.38,3-5.15a15,15,0,0,0-1.17-6.4s1.61-.89,1.17-3.39-2.11-4.56-3.56-.83C393.55,136.18,387.56,124.85,380.27,139.26Z"/><ellipse class="cls-111" cx="391.96" cy="146.03" rx="2.69" ry="2.85" transform="translate(-5.42 15.46) rotate(-2.24)"/><path class="cls-112" d="M387,144a1,1,0,0,0,1.85-.36"/><path class="cls-112" d="M382.24,146.32s1.45,1,1.42-.84"/><path class="cls-51" d="M389.21,129.46c-4,.55-7.53,3.62-10.14,6.43-1.33,1.43-3.23,2.7-1.64,4.54,1.11,1.28,4.4,2.28,7.85.17s2-4,3.94-3.73c2.69.31,3.1,2.75,4.33-.62h0s.56-2.77.85-5.1A6.86,6.86,0,0,0,389.21,129.46Z"/><path class="cls-96" d="M362,189.34a7.32,7.32,0,0,1,3.85-4.94,7.22,7.22,0,0,0,3.31-2.52c.86-.86,1.51.34.86,1.64s-2.35,3.43-2.5,3.79,0,2.68-.5,4.07l-5-1.94"/><path class="cls-113" d="M367.53,187.31a9.92,9.92,0,0,0-2.93,3.46,20.43,20.43,0,0,0-1.26,5.25s3.84-3.8,3.87-3.89S367.54,188.73,367.53,187.31Z"/><path class="cls-97" d="M363.65,186.68"/><path class="cls-114" d="M408.06,184.13s5,6.79.6,31.39c-3,12.81-4.7,5.64-2.85,34,1,14.68.18,12.55-4.66,15.42s-19.64,5.92-30.58,5.65l-1.26-7.71s-3.14,5.83-3.86,7.44c0,0-5.56-2.15-6.82-4.48,0,0,.72-24.93,3-36.77,0,0-3,6.49-8.51,8s-8.7-6.75-8.58-10.34c.18-5.2,9.34-25.09,15.26-34.15,0,0-.17,3.48,2.7,3.48,0,0,4.06-8.16,9.35-9.86S408.06,184.13,408.06,184.13Z"/><path class="cls-115" d="M371.92,186.19a11.34,11.34,0,0,1,10.52,5.31c4.22,6.25,8.4,12.44,14.19,12.44,6.54,0,12-9.24,11.54-18.54l-32.13-1Z"/><path class="cls-116" d="M362.58,196.05s-8.27,16-10.82,22.24a25.21,25.21,0,0,0-1.48,4.81"/><path class="cls-117" d="M387.57,170.86l-5.32-3.48-.48.6-.11.14a15.86,15.86,0,0,0,1.57,4c.88,1.35-1.35,5.53-1.69,6.15C384.4,176,387.57,170.86,387.57,170.86Z"/><path class="cls-118" d="M410,180s-3,8.16-10,11.44c-6.19,2.91-12.69-1-18.07-4s-7.17-2.42-10.2-1.25c0,0,2.72-5.81,5.57-7.24s9.36-2,9.36-2S409.18,177.85,410,180Z"/><path class="cls-119" d="M410.72,157c-2-6.45-6.79-6.46-6.79-6.46s-11.45-2.06-16.08,3.64c-3.64,4.48-4.31,7.9-6.44,13.11a9,9,0,0,0,2.47,2.58,17.45,17.45,0,0,0,4,1.58,12.46,12.46,0,0,0-.23,1.64c-.06.83-2,1.11-.87,4,1.27,3.3,13.73,15.92,21.47,6.67a19.59,19.59,0,0,0,3-6.87A42.07,42.07,0,0,0,410.72,157Z"/><path class="cls-116" d="M351.88,217.85a8.22,8.22,0,0,0-3.15,3.58"/><path class="cls-63" d="M384.9,172.45a3.58,3.58,0,0,1-1,1.41"/><path class="cls-95" d="M384.9,172.45a.93.93,0,0,1,0,.51,1.17,1.17,0,0,1-.2.43,1.14,1.14,0,0,1-.36.32.93.93,0,0,1-.49.14,2,2,0,0,1,.16-.46,2.09,2.09,0,0,1,.21-.36,2.06,2.06,0,0,1,.28-.31A2,2,0,0,1,384.9,172.45Z"/><path class="cls-120" d="M368.88,182.48a1.06,1.06,0,0,0,.3.33.27.27,0,0,0,.33,0,3.26,3.26,0,0,0,.53-.71,1.16,1.16,0,0,1-.41.88.42.42,0,0,1-.54,0A.73.73,0,0,1,368.88,182.48Z"/><path class="cls-120" d="M371.69,178.91a.49.49,0,0,0,.23.13.44.44,0,0,0,.23,0,1.59,1.59,0,0,1,.59,0,1.59,1.59,0,0,1-.54.23.49.49,0,0,1-.34,0A.34.34,0,0,1,371.69,178.91Z"/><path class="cls-67" d="M396.5,150.33s5.88,4.57,7.57.21A27.3,27.3,0,0,0,396.5,150.33Z"/><path class="cls-121" d="M396.5,150.33s5.88,4.57,7.57.21"/><path class="cls-121" d="M395.31,150.41a11.94,11.94,0,0,0,3.87,2.47c2.14.76,4.71.56,5.84-2.18"/><path class="cls-121" d="M381.87,166.29a10,10,0,0,0,6.06,4.19"/><path class="cls-122" d="M392.95,183.63a12.93,12.93,0,0,1-2.93-4c-.89-2.18,2.38-3.68,3.2-4.77s0-2.86-.61-5.11a12.68,12.68,0,0,1,.2-5.38,35.31,35.31,0,0,1-5,6.92c.11.1,0,.16-.23,1.8-.14.83-2,1.11-.87,4a13.77,13.77,0,0,0,2.81,3.74C391.26,182.27,392.95,183.63,392.95,183.63Z"/><path class="cls-121" d="M391,166.76a8.82,8.82,0,0,0,2.87-2"/><path class="cls-121" d="M387.71,171.47a33.86,33.86,0,0,0,5-7.45"/><path class="cls-123" d="M371.11,211.24a48.9,48.9,0,0,1,1.41,13.87c-.08,4-2.82,11.81-2.54,21.52A77.84,77.84,0,0,0,374.41,269l-3.83,1.55-1.26-7.42-3.85,7.15-6.68-4.2.13-3.24s.77-20.8,2.7-33.29A191.88,191.88,0,0,0,371.11,211.24Z"/><path class="cls-116" d="M406.46,222.9s-3.82,10.9-5.78,14.72"/><path class="cls-116" d="M361.36,229.9s7-11,9.9-19.08"/><path class="cls-124" d="M367.07,333s3.44,15.45,2.26,23.82l-1,6.65s3.31,1,4.55-.51,2.74-10.22,2.74-10.22Z"/><path class="cls-79" d="M373.11,157s3.27.15,4.18,3.06a5.36,5.36,0,0,0-4.36-2.52Z"/><path class="cls-125" d="M373.81,169.38c.27.21.14,1-.25,1.42a1.74,1.74,0,0,1-2.49,0,2,2,0,0,1-.61-1.71c0-.07.07-.07.51.12a3.71,3.71,0,0,0,1.71.14C373.09,169.32,373.41,169.07,373.81,169.38Z"/><path class="cls-126" d="M395,137.06s-.45,1.13.38,1.5"/><path class="cls-79" d="M385.94,141.64a14.58,14.58,0,0,1,4.43-.41s-3.7.62-4.41.92Z"/><path class="cls-79" d="M382.54,143.25a5.23,5.23,0,0,0-1.76,1.82,15.28,15.28,0,0,1,2.18-1.52Z"/><path class="cls-95" d="M386.77,150.89s-.49-.76.75-.85a4.7,4.7,0,0,0,2.43-1,3,3,0,0,1-.74.94A4,4,0,0,1,386.77,150.89Z"/><path class="cls-95" d="M387.69,151.44h.15a1.94,1.94,0,0,0,1.46-.72s-.09.81-.69,1A1,1,0,0,1,387.69,151.44Z"/><g class="cls-127"><ellipse class="cls-128" cx="383.52" cy="151.37" rx="2.69" ry="3.37" transform="translate(-26.39 106.97) rotate(-15.36)"/></g><path class="cls-129" d="M385,146.63s-1.11,2.16.2,3.07c.74.52,2-1.78,2-1.78Z"/><path class="cls-67" d="M385.52,145.54s-1.21,1.8-.28,2.67,2.22-.5,2.22-.5"/><path class="cls-95" d="M385.52,145.54a9.32,9.32,0,0,0-.32,1.29,1.45,1.45,0,0,0,.15,1.07.9.9,0,0,0,.93.35,3.7,3.7,0,0,0,1.18-.54,2.29,2.29,0,0,1-1.06.93,1.26,1.26,0,0,1-1.5-.39,1.61,1.61,0,0,1-.16-1.53A3,3,0,0,1,385.52,145.54Z"/><path class="cls-95" d="M389.74,148.56s-.19,1,.69.48C390.43,149,389.79,149,389.74,148.56Z"/><path class="cls-65" d="M360.45,313.16c1.54,5.53,7.87,23,13.58,36.65"/><path class="cls-130" d="M375.36,180.77s3.88-.91,6.34.44,5.64,1.34,6.74.64a15.63,15.63,0,0,0,1.31-.93s-1.2-1.31-1.95-2.24a7.35,7.35,0,0,1-1-1.7,57.4,57.4,0,0,0-7.61,1.4,9.37,9.37,0,0,0-1.77.66A8.65,8.65,0,0,0,375.36,180.77Z"/><path class="cls-65" d="M306.22,238.94s4.06,7.71,20.35,5"/><polygon class="cls-31" points="179 321.16 174.04 325.71 227.46 323.14 227.46 323.07 222.5 318.58 179 321.16"/><polygon class="cls-131" points="222.37 252.5 227.46 247.94 174.04 248.46 179 253.01 222.37 252.5"/><polygon class="cls-131" points="222.37 252.5 222.5 252.5 222.5 318.58 227.46 323.07 227.46 247.94 222.37 252.5"/><polygon class="cls-31" points="179 253.01 174.04 248.46 174.04 325.71 179 321.16 179 253.01"/><path class="cls-132" d="M227.46,323.07"/><path class="cls-132" d="M222.5,318.59"/><polygon class="cls-31" points="179 208.68 174.04 213.23 227.46 214.09 227.46 214.03 222.5 209.54 179 208.68"/><polygon class="cls-131" points="222.37 143.45 227.46 138.9 174.04 135.97 179 140.52 222.37 143.45"/><polygon class="cls-131" points="222.37 143.45 222.5 143.45 222.5 209.54 227.46 214.03 227.46 138.9 222.37 143.45"/><polygon class="cls-31" points="179 140.52 174.04 135.97 174.04 213.23 179 208.68 179 140.52"/><path class="cls-132" d="M227.46,214"/><polygon class="cls-31" points="179 237.11 174.04 241.66 227.46 241.28 227.46 241.21 222.5 236.72 179 237.11"/><polygon class="cls-131" points="222.37 223.81 227.46 219.25 174.04 218.83 179 223.38 222.37 223.81"/><polygon class="cls-131" points="222.37 223.81 222.5 223.81 222.5 236.72 227.46 241.21 227.46 219.25 222.37 223.81"/><polygon class="cls-31" points="179 223.38 174.04 218.83 174.04 241.66 179 237.11 179 223.38"/><path class="cls-132" d="M180.23,223.45"/><path class="cls-132" d="M175.05,218.35"/><rect class="cls-133" x="155.95" y="120.41" width="4.58" height="219.97"/><polygon class="cls-134" points="212.07 164.14 189.55 163.66 189.55 156.85 212.07 158.05 212.07 164.14"/><polygon class="cls-134" points="212.07 163.76 189.93 163.3 189.93 156.85 212.07 157.98 212.07 163.76"/><g class="cls-135"><path class="cls-136" d="M204.85,156l-3.28,7.91-4.36,1.67-11.51-1.76s.56-8.17.84-8.63,15.87-.74,15.87-.74Z"/></g><ellipse class="cls-137" cx="210.75" cy="160.84" rx="0.35" ry="0.53"/><ellipse class="cls-137" cx="191.44" cy="160.04" rx="0.35" ry="0.53"/><path class="cls-10" d="M121.7,277.39s3.41-5.75,8.28-7.54"/><polygon class="cls-138" points="271.85 135.69 262.69 160.92 262.69 249.41 271.85 249.41 271.85 135.69"/><polygon class="cls-139" points="145.99 135.65 156.02 160.88 156.02 249.38 145.99 249.38 145.99 135.65"/><polygon class="cls-140" points="220.99 219.22 219.3 223.78 222.37 223.78 227.46 219.22 220.99 219.22"/><polygon class="cls-141" points="211.04 248.06 209.51 252.67 222.33 252.7 227.44 248.06 211.04 248.06"/><line class="cls-10" x1="381.01" y1="371.28" x2="382.58" y2="371.44"/><line class="cls-10" x1="381.01" y1="369.71" x2="382.58" y2="369.87"/><line class="cls-10" x1="381.01" y1="368.14" x2="382.58" y2="368.3"/><path class="cls-31" d="M162.19,85.51l.1.2h-1.63l.14.2a1.87,1.87,0,0,0,.77.64c.1.12.51.65,1,.65h.75a4.12,4.12,0,0,0,1.57,1.23l1,1.41-.44.44a.13.13,0,0,0,0,.18.14.14,0,0,0,.1,0,.13.13,0,0,0,.09,0l.42-.42.3.4a.18.18,0,0,0,.11,0l.07,0a.13.13,0,0,0,0-.18l-1.3-1.74.31,0a3,3,0,0,0,.65-.08l1,1.37-.43.43a.13.13,0,0,0,0,.18.13.13,0,0,0,.09,0,.14.14,0,0,0,.1,0l.4-.4.27.38a.18.18,0,0,0,.11,0l.07,0a.13.13,0,0,0,0-.18l-1.38-1.87a6.22,6.22,0,0,0,2.37-1.77c.2-.21.4-.42.58-.58s.26-.25.38-.38h1.14a0,0,0,0,1,0,0,0,0,0,0,1,0,0h0s0,0,0,0,0,0,0,0,0,0,0,0v0h0v0s0,0,0,0h0l-.56-.76a1.49,1.49,0,0,0,0-1.21,8.62,8.62,0,0,0-1.63-2l-.21-.2V82l-.45-.23-.07.33-2,.86A.13.13,0,0,0,166,83c-.43,0-1,0-1.45,0a6.64,6.64,0,0,0-4.06,2l-.17.17.23,0Zm6.26-2.06c.08-.07.26,0,.38.13s.16.32.07.39a.54.54,0,0,1-.38-.13C168.4,83.7,168.37,83.52,168.45,83.45Z"/><line class="cls-142" x1="168.48" y1="333.17" x2="168.48" y2="270.09"/><path class="cls-2" d="M236.79,238.06"/><path class="cls-143" d="M153.69,280.67a10.49,10.49,0,0,0-3.68,5.42c-1,3.42-2.32,6.29-4.6,7.26-6.4,2.72-2.08,6.65-6.93,10-2.61,1.81-4.27,3.23-5,6.23-.92,3.82-1.8,5-5,6.77-.62.34-4.61-.66-6.56,3.21-2.66,5.29-3.36,16-3.33,17.58h-1.46a71.42,71.42,0,0,1,5.19-25.43C128.38,297.52,140.61,283.38,153.69,280.67Z"/><path class="cls-143" d="M84.8,254.26s-.42,14.2,6.08,19.18,3.59,7.16,3.71,10.06a10.35,10.35,0,0,0,4.73,8.11c2.91,1.74-1.32,6.87,7.7,13.36s6.08,25.15,5.2,33.71l1.84.19s1.92-23.8-1.44-38.28c-3.43-14.78-7.49-25.5-17.1-34.32S84.8,254.26,84.8,254.26Z"/><path class="cls-143" d="M134.26,242.63S115.81,255.12,116,284s0,53.81,0,53.81h3.27s-2.5-30-1.54-36.9,3.32-6.79,7.4-9.23-.67-7.3,2-10.38,4.23-1.35,2.88-9,5.7-7.3,6-13.84S133.3,249.55,134.26,242.63Z"/><g class="cls-144"><path class="cls-145" d="M134.26,242.63a19.61,19.61,0,0,0-4.66,12.78c0,7.92-1.94,7.08-5.39,11.12s-1.94,4.63-2.19,10.87-5.48,10.78-5.73,17.6-3.54-2.28-3.54-2.28l6-47.42L129,239Z"/></g><g class="cls-146"><path class="cls-147" d="M84.8,254.26s1.58,8.29,5.62,12.74,8.07,4.45,8.77,9.46-.33,6.7,4,10.49c2.6,2.26,2.37,3.7,3.07,8.16s7.68,10.44,8.44,16.54c.36,2.94,1.55-5.42-.23-20-1.27-10.44-7.23-28.39-7.23-28.39L86,252l-1.25,1.81"/></g><g class="cls-148"><path class="cls-149" d="M153.45,281.09a15.16,15.16,0,0,0-11.15,9.44c-3.41,8.4-4.85,5.51-7,7.87s-2.13,7.29-7,10c-5.76,3.22-6.78,3-8.74,10.58l-1.18,5.51,10,.92L155,296.17l2.62-18-4,2.47"/></g><path class="cls-51" d="M124.09,353.87H113.82a8.36,8.36,0,0,1-8.19-6.7l-4-19.7a4.41,4.41,0,0,1,4.33-5.29h27a3.6,3.6,0,0,1,3.53,4.32l-4.19,20.67A8.36,8.36,0,0,1,124.09,353.87Z"/><g class="cls-150"><path class="cls-151" d="M129.88,322s-6.53,15.63-27.23,22.67l.61,7.72a8.36,8.36,0,0,0,4.49,6.76c3.49,1.81,8,4.12,8.68,4.25,1.07.21,21.77-4.91,22.19-5.55s4.06-22.41,4.06-23,0-12.59-.43-13.23-12.59-4.05-12.59-4.05l.47,3Z"/></g></g></g></g></svg>